<?xml version="1.0" encoding="UTF-8" standalone="no"?>
<!-- Generator: Adobe Illustrator 17.1.0, SVG Export Plug-In . SVG Version: 6.00 Build 0)  -->

<svg
   xmlns:dc="http://purl.org/dc/elements/1.1/"
   xmlns:cc="http://creativecommons.org/ns#"
   xmlns:rdf="http://www.w3.org/1999/02/22-rdf-syntax-ns#"
   xmlns:svg="http://www.w3.org/2000/svg"
   xmlns="http://www.w3.org/2000/svg"
   xmlns:sodipodi="http://sodipodi.sourceforge.net/DTD/sodipodi-0.dtd"
   xmlns:inkscape="http://www.inkscape.org/namespaces/inkscape"
   version="1.1"
   id="Capa_1"
   x="0px"
   y="0px"
   viewBox="0 0 240.95706 222.34228"
   xml:space="preserve"
   sodipodi:docname="binary-code-svgrepo-com.svg"
   width="240.95706"
   height="222.34229"
   inkscape:version="0.92.2 5c3e80d, 2017-08-06"><metadata
     id="metadata57"><rdf:RDF><cc:Work
         rdf:about=""><dc:format>image/svg+xml</dc:format><dc:type
           rdf:resource="http://purl.org/dc/dcmitype/StillImage" /><dc:title></dc:title></cc:Work></rdf:RDF></metadata><defs
     id="defs55" /><sodipodi:namedview
     pagecolor="#ffffff"
     bordercolor="#666666"
     borderopacity="1"
     objecttolerance="10"
     gridtolerance="10"
     guidetolerance="10"
     inkscape:pageopacity="0"
     inkscape:pageshadow="2"
     inkscape:window-width="1630"
     inkscape:window-height="860"
     id="namedview53"
     showgrid="false"
     fit-margin-top="0"
     fit-margin-left="0"
     fit-margin-right="0"
     fit-margin-bottom="0"
     inkscape:zoom="0.90248218"
     inkscape:cx="-72.830795"
     inkscape:cy="95.698706"
     inkscape:window-x="0"
     inkscape:window-y="0"
     inkscape:window-maximized="0"
     inkscape:current-layer="Capa_1" /><g
     id="g22"
     transform="translate(-12.441791,-4.1069267)" /><g
     id="g24"
     transform="translate(-12.441791,-4.1069267)" /><g
     id="g26"
     transform="translate(-12.441791,-4.1069267)" /><g
     id="g28"
     transform="translate(-12.441791,-4.1069267)" /><g
     id="g30"
     transform="translate(-12.441791,-4.1069267)" /><g
     id="g32"
     transform="translate(-12.441791,-4.1069267)" /><g
     id="g34"
     transform="translate(-12.441791,-4.1069267)" /><g
     id="g36"
     transform="translate(-12.441791,-4.1069267)" /><g
     id="g38"
     transform="translate(-12.441791,-4.1069267)" /><g
     id="g40"
     transform="translate(-12.441791,-4.1069267)" /><g
     id="g42"
     transform="translate(-12.441791,-4.1069267)" /><g
     id="g44"
     transform="translate(-12.441791,-4.1069267)" /><g
     id="g46"
     transform="translate(-12.441791,-4.1069267)" /><g
     id="g48"
     transform="translate(-12.441791,-4.1069267)" /><g
     id="g50"
     transform="translate(-12.441791,-4.1069267)" /><g
     id="g158"
     transform="translate(-12.441791,-4.1069267)"
     style="fill:#ffffff"><path
       style="stroke-width:0.14406979;fill:#ffffff"
       d="m 160.28877,155.62264 c 0,0.59673 0.48378,1.08052 1.08052,1.08052 0.59674,0 1.08052,-0.48379 1.08052,-1.08052 v -8.44638 c 0,-0.43711 -0.26321,-0.831 -0.66704,-0.99826 -0.40354,-0.16712 -0.86845,-0.0748 -1.17748,0.23425 l -2.73791,2.73791 c -0.42198,0.42198 -0.42198,1.10616 0,1.528 0.42199,0.42198 1.10617,0.42198 1.52801,0 l 0.89338,-0.89338 z"
       id="path2"
       inkscape:connector-curvature="0" /><path
       style="stroke-width:0.14406979;fill:#ffffff"
       d="m 97.554993,150.07962 0.89338,-0.89338 v 5.83785 c 0,0.59674 0.483785,1.08053 1.080525,1.08053 0.596742,0 1.080532,-0.48379 1.080532,-1.08053 v -8.44638 c 0,-0.43711 -0.26322,-0.83099 -0.667052,-0.99826 -0.40354,-0.16712 -0.86845,-0.0748 -1.177485,0.23426 l -2.7379,2.7379 c -0.42198,0.42198 -0.42198,1.10617 0,1.52801 0.42198,0.42198 1.10616,0.42198 1.528,0 z"
       id="path4"
       inkscape:connector-curvature="0" /><path
       style="stroke-width:0.14406979;fill:#ffffff"
       d="m 184.16774,122.13078 c -0.40354,-0.16712 -0.86845,-0.0748 -1.17748,0.23425 l -2.7379,2.73791 c -0.42199,0.42198 -0.42199,1.10616 0,1.528 0.42198,0.42198 1.10616,0.42198 1.528,0 l 0.89338,-0.89338 v 5.83786 c 0,0.59673 0.48378,1.08052 1.08052,1.08052 0.59674,0 1.08052,-0.48379 1.08052,-1.08052 v -8.44638 c 0,-0.43697 -0.26321,-0.831 -0.66704,-0.99826 z"
       id="path6"
       inkscape:connector-curvature="0" /><path
       style="stroke-width:0.14406979;fill:#ffffff"
       d="m 58.07302,50.869986 c -0.40354,-0.167121 -0.868453,-0.07477 -1.177483,0.234258 l -2.737902,2.737902 c -0.421981,0.42198 -0.421981,1.106167 0,1.528004 0.42198,0.421981 1.106168,0.421981 1.528004,0 l 0.893377,-0.893377 v 3.197917 c 0,0.596738 0.483786,1.080524 1.080523,1.080524 0.596738,0 1.080524,-0.483786 1.080524,-1.080524 v -5.806444 c 0,-0.437108 -0.263216,-0.830995 -0.667043,-0.99826 z"
       id="path8"
       inkscape:connector-curvature="0" /><path
       style="stroke-width:0.14406979;fill:#ffffff"
       d="m 215.67575,104.60509 v -3.18019 c 0,-2.047667 -1.66588,-3.713547 -3.71355,-3.713547 h -0.0532 c -2.04766,0 -3.71354,1.66588 -3.71354,3.713547 v 3.18019 c 0,2.04767 1.66588,3.71355 3.71354,3.71355 h 0.0532 c 2.04767,0 3.71355,-1.66588 3.71355,-3.71355 z m -2.16105,0 c 0,0.85607 -0.69643,1.5525 -1.5525,1.5525 h -0.0532 c -0.85606,0 -1.55249,-0.69643 -1.55249,-1.5525 v -3.18019 c 0,-0.85607 0.69643,-1.552497 1.55249,-1.552497 h 0.0532 c 0.85607,0 1.5525,0.696427 1.5525,1.552497 z"
       id="path10"
       inkscape:connector-curvature="0" /><path
       style="stroke-width:0.14406979;fill:#ffffff"
       d="m 16.208494,53.64247 h -0.05316 c -2.047664,0 -3.713543,1.665879 -3.713543,3.713543 v 3.180197 c 0,2.047664 1.665879,3.713542 3.713543,3.713542 h 0.05316 c 2.047664,0 3.713543,-1.665878 3.713543,-3.713542 v -3.180197 c 0,-2.04752 -1.665879,-3.713543 -3.713543,-3.713543 z m 1.552496,6.893884 c 0,0.856062 -0.696433,1.552496 -1.552496,1.552496 h -0.05316 c -0.856062,0 -1.552496,-0.696434 -1.552496,-1.552496 v -3.180197 c 0,-0.856063 0.696434,-1.552496 1.552496,-1.552496 h 0.05316 c 0.856063,0 1.552496,0.696433 1.552496,1.552496 z"
       id="path12"
       inkscape:connector-curvature="0" /><path
       style="stroke-width:0.14406979;fill:#ffffff"
       d="m 153.06858,58.021874 h -0.0532 c -2.04767,0 -3.71355,1.665879 -3.71355,3.713543 v 3.180197 c 0,2.047664 1.66588,3.713543 3.71355,3.713543 h 0.0532 c 0.59673,0 1.08052,-0.483786 1.08052,-1.080523 0,-0.596738 -0.48379,-1.080524 -1.08052,-1.080524 h -0.0532 c -0.85607,0 -1.5525,-0.696434 -1.5525,-1.552496 v -3.180197 c 0,-0.856063 0.69643,-1.552496 1.5525,-1.552496 h 0.0532 c 0.85606,0 1.55249,0.696433 1.55249,1.552496 0,0.596737 0.48379,1.080523 1.08053,1.080523 0.59673,0 1.08052,-0.483786 1.08052,-1.080523 1.4e-4,-2.047664 -1.66573,-3.713543 -3.71354,-3.713543 z"
       id="path14"
       inkscape:connector-curvature="0" /><path
       style="stroke-width:0.14406979;fill:#ffffff"
       d="m 249.68532,109.69746 h -0.0532 c -2.04767,0 -3.71355,1.66588 -3.71355,3.71354 v 3.1802 c 0,2.04766 1.66588,3.71354 3.71355,3.71354 h 0.0532 c 2.04766,0 3.71354,-1.66588 3.71354,-3.71354 v -3.1802 c 0,-2.04766 -1.66588,-3.71354 -3.71354,-3.71354 z m 1.55249,6.89388 c 0,0.85607 -0.69643,1.5525 -1.55249,1.5525 h -0.0532 c -0.85607,0 -1.5525,-0.69643 -1.5525,-1.5525 V 113.411 c 0,-0.85606 0.69643,-1.55249 1.5525,-1.55249 h 0.0532 c 0.85606,0 1.55249,0.69643 1.55249,1.55249 z"
       id="path16"
       inkscape:connector-curvature="0" /><path
       style="stroke-width:0.14406979;fill:#ffffff"
       d="m 58.334547,133.6711 h -0.05316 c -2.047664,0 -3.713544,1.66588 -3.713544,3.71354 v 3.1802 c 0,2.04766 1.66588,3.71354 3.713544,3.71354 h 0.05316 c 2.047664,0 3.713544,-1.66588 3.713544,-3.71354 v -3.1802 c 1.44e-4,-2.04752 -1.665735,-3.71354 -3.713544,-3.71354 z m 1.552641,6.89388 c 0,0.85606 -0.696434,1.5525 -1.552497,1.5525 h -0.05316 c -0.856063,0 -1.552496,-0.69644 -1.552496,-1.5525 v -3.18034 c 0,-0.85606 0.696433,-1.5525 1.552496,-1.5525 h 0.05316 c 0.856063,0 1.552497,0.69644 1.552497,1.5525 z"
       id="path18"
       inkscape:connector-curvature="0" /><path
       inkscape:connector-curvature="0"
       id="path68"
       d="m 122.35987,31.331687 c 0,0.596738 0.48378,1.080524 1.08052,1.080524 0.59674,0 1.08052,-0.483786 1.08052,-1.080524 v -8.446379 c 0,-0.437108 -0.26321,-0.830995 -0.66704,-0.99826 -0.40354,-0.167121 -0.86845,-0.07477 -1.17748,0.234258 l -2.7379,2.737902 c -0.42198,0.421981 -0.42198,1.106168 0,1.528004 0.42198,0.421981 1.10616,0.421981 1.528,0 l 0.89338,-0.893376 z"
       style="stroke-width:0.14406979;fill:#ffffff" /><path
       inkscape:connector-curvature="0"
       id="path70"
       d="m 154.40552,28.558469 0.89337,-0.893376 v 5.837851 c 0,0.596738 0.48379,1.080524 1.08053,1.080524 0.59674,0 1.08052,-0.483786 1.08052,-1.080524 v -8.446379 c 0,-0.437108 -0.26321,-0.830995 -0.66704,-0.998259 -0.40354,-0.167122 -0.86845,-0.07477 -1.17748,0.234257 l -2.73791,2.737902 c -0.42198,0.421981 -0.42198,1.106168 0,1.528004 0.42199,0.421981 1.10617,0.421981 1.52801,0 z"
       style="stroke-width:0.14406979;fill:#ffffff" /><path
       inkscape:connector-curvature="0"
       id="path72"
       d="m 190.05357,160.08101 c -0.40354,-0.16712 -0.86845,-0.0748 -1.17748,0.23426 l -2.7379,2.7379 c -0.42198,0.42198 -0.42198,1.10617 0,1.52801 0.42198,0.42198 1.10616,0.42198 1.528,0 l 0.89338,-0.89338 v 5.83785 c 0,0.59674 0.48379,1.08053 1.08052,1.08053 0.59674,0 1.08053,-0.48379 1.08053,-1.08053 v -8.44638 c 0,-0.43696 -0.26322,-0.83099 -0.66705,-0.99826 z"
       style="stroke-width:0.14406979;fill:#ffffff" /><path
       inkscape:connector-curvature="0"
       id="path74"
       d="m 122.79829,69.151567 c -0.40353,-0.16712 -0.86845,-0.07477 -1.17748,0.234258 l -2.7379,2.737902 c -0.42198,0.421981 -0.42198,1.10617 0,1.528005 0.42198,0.421982 1.10617,0.421982 1.528,0 l 0.89338,-0.893377 v 3.197918 c 0,0.596738 0.48379,1.080524 1.08052,1.080524 0.59674,0 1.08053,-0.483786 1.08053,-1.080524 v -5.806446 c 0,-0.437108 -0.26322,-0.830995 -0.66705,-0.99826 z"
       style="stroke-width:0.14406979;fill:#ffffff" /><path
       inkscape:connector-curvature="0"
       id="path76"
       d="m 80.931435,183.78614 v -3.1802 c 0,-2.04766 -1.66588,-3.71354 -3.71355,-3.71354 h -0.0532 c -2.04766,0 -3.71354,1.66588 -3.71354,3.71354 v 3.1802 c 0,2.04766 1.66588,3.71354 3.71354,3.71354 h 0.0532 c 2.04767,0 3.71355,-1.66588 3.71355,-3.71354 z m -2.16105,0 c 0,0.85606 -0.69644,1.55249 -1.5525,1.55249 h -0.0532 c -0.85606,0 -1.55249,-0.69643 -1.55249,-1.55249 v -3.1802 c 0,-0.85606 0.69643,-1.5525 1.55249,-1.5525 h 0.0532 c 0.85606,0 1.5525,0.69644 1.5525,1.5525 z"
       style="stroke-width:0.14406979;fill:#ffffff" /><path
       inkscape:connector-curvature="0"
       id="path78"
       d="m 136.57887,124.1113 h -0.0532 c -2.04766,0 -3.71355,1.66588 -3.71355,3.71355 v 3.18019 c 0,2.04767 1.66589,3.71355 3.71355,3.71355 h 0.0532 c 2.04766,0 3.71354,-1.66588 3.71354,-3.71355 v -3.18019 c 0,-2.04752 -1.66588,-3.71355 -3.71354,-3.71355 z m 1.55249,6.89389 c 0,0.85606 -0.69643,1.55249 -1.55249,1.55249 h -0.0532 c -0.85606,0 -1.55249,-0.69643 -1.55249,-1.55249 v -3.1802 c 0,-0.85606 0.69643,-1.5525 1.55249,-1.5525 h 0.0532 c 0.85606,0 1.55249,0.69644 1.55249,1.5525 z"
       style="stroke-width:0.14406979;fill:#ffffff" /><path
       inkscape:connector-curvature="0"
       id="path80"
       d="m 45.271386,11.065254 h -0.0532 c -2.04766,0 -3.71354,1.665878 -3.71354,3.713542 v 3.180196 c 0,2.047664 1.66588,3.713543 3.71354,3.713543 h 0.0532 c 0.59674,0 1.08053,-0.483786 1.08053,-1.080523 0,-0.596738 -0.48379,-1.080524 -1.08053,-1.080524 h -0.0532 c -0.85606,0 -1.55249,-0.696433 -1.55249,-1.552496 v -3.180196 c 0,-0.856063 0.69643,-1.552497 1.55249,-1.552497 h 0.0532 c 0.85606,0 1.5525,0.696434 1.5525,1.552497 0,0.596737 0.48378,1.080523 1.08052,1.080523 0.59674,0 1.08052,-0.483786 1.08052,-1.080523 1.5e-4,-2.047664 -1.66573,-3.713542 -3.71354,-3.713542 z"
       style="stroke-width:0.14406979;fill:#ffffff" /><path
       inkscape:connector-curvature="0"
       id="path82"
       d="m 117.63422,200.25023 h -0.0532 c -2.04766,0 -3.71355,1.66588 -3.71355,3.71355 v 3.18019 c 0,2.04767 1.66589,3.71354 3.71355,3.71354 h 0.0532 c 2.04767,0 3.71354,-1.66587 3.71354,-3.71354 v -3.18019 c 0,-2.04767 -1.66587,-3.71355 -3.71354,-3.71355 z m 1.5525,6.89389 c 0,0.85606 -0.69644,1.55249 -1.5525,1.55249 h -0.0532 c -0.85606,0 -1.5525,-0.69643 -1.5525,-1.55249 v -3.18034 c 0,-0.85607 0.69644,-1.5525 1.5525,-1.5525 h 0.0532 c 0.85606,0 1.5525,0.69643 1.5525,1.5525 z"
       style="stroke-width:0.14406979;fill:#ffffff" /><path
       inkscape:connector-curvature="0"
       id="path84"
       d="m 44.034323,201.07377 h -0.0532 c -2.04766,0 -3.71354,1.66588 -3.71354,3.71354 v 3.1802 c 0,2.04767 1.66588,3.71354 3.71354,3.71354 h 0.0532 c 2.04767,0 3.71354,-1.66587 3.71354,-3.71354 v -3.1802 c 1.5e-4,-2.04752 -1.66573,-3.71354 -3.71354,-3.71354 z m 1.55264,6.89389 c 0,0.85606 -0.69643,1.55249 -1.55249,1.55249 h -0.0532 c -0.85606,0 -1.5525,-0.69643 -1.5525,-1.55249 v -3.18035 c 0,-0.85606 0.69644,-1.55249 1.5525,-1.55249 h 0.0532 c 0.85606,0 1.55249,0.69643 1.55249,1.55249 z"
       style="stroke-width:0.14406979;fill:#ffffff" /><path
       style="stroke-width:0.14406979;fill:#ffffff"
       d="m 184.58794,75.202083 c 0,0.59674 0.48379,1.08052 1.08053,1.08052 0.59674,0 1.08052,-0.48378 1.08052,-1.08052 v -8.44638 c 0,-0.43711 -0.26321,-0.831 -0.66704,-0.99826 -0.40354,-0.16712 -0.86846,-0.0748 -1.17748,0.23426 l -2.73791,2.7379 c -0.42198,0.42198 -0.42198,1.10617 0,1.528 0.42198,0.42198 1.10617,0.42198 1.52801,0 l 0.89337,-0.89337 z"
       id="path86"
       inkscape:connector-curvature="0" /><path
       style="stroke-width:0.14406979;fill:#ffffff"
       d="m 50.895489,95.180987 0.893378,-0.89338 v 5.837853 c 0,0.59674 0.483786,1.08051 1.080524,1.08051 0.596737,0 1.080523,-0.48377 1.080523,-1.08051 v -8.446383 c 0,-0.43711 -0.263214,-0.830995 -0.667043,-0.998265 -0.403539,-0.16712 -0.86845,-0.0748 -1.17748,0.234265 l -2.737905,2.7379 c -0.421978,0.42198 -0.421978,1.10617 0,1.52801 0.421982,0.421981 1.106169,0.421981 1.528003,0 z"
       id="path88"
       inkscape:connector-curvature="0" /><path
       style="stroke-width:0.14406979;fill:#ffffff"
       d="m 251.11056,57.37307 c -0.40354,-0.16712 -0.86846,-0.0748 -1.17749,0.23426 l -2.7379,2.7379 c -0.42198,0.42198 -0.42198,1.10617 0,1.528 0.42198,0.42198 1.10617,0.42198 1.52801,0 l 0.89337,-0.89337 v 5.83785 c 0,0.59674 0.48379,1.08052 1.08053,1.08052 0.59674,0 1.08052,-0.48378 1.08052,-1.08052 v -8.44638 c 0,-0.43696 -0.26322,-0.831 -0.66704,-0.99826 z"
       id="path90"
       inkscape:connector-curvature="0" /><path
       style="stroke-width:0.14406979;fill:#ffffff"
       d="m 86.583376,76.763243 c -0.403538,-0.16712 -0.868454,-0.0748 -1.17748,0.23426 l -2.737905,2.73791 c -0.421978,0.42198 -0.421978,1.10617 0,1.528 0.421982,0.42198 1.10617,0.42198 1.528004,0 l 0.893378,-0.89338 v 3.19792 c 0,0.59674 0.483785,1.08053 1.080523,1.08053 0.596738,0 1.080524,-0.48379 1.080524,-1.08053 v -5.80645 c 0,-0.43711 -0.263214,-0.83099 -0.667044,-0.99826 z"
       id="path92"
       inkscape:connector-curvature="0" /><path
       style="stroke-width:0.14406979;fill:#ffffff"
       d="m 133.25064,167.81486 v -3.1802 c 0,-2.04766 -1.66588,-3.71354 -3.71354,-3.71354 h -0.0532 c -2.04766,0 -3.71354,1.66588 -3.71354,3.71354 v 3.1802 c 0,2.04766 1.66588,3.71354 3.71354,3.71354 h 0.0532 c 2.04766,0 3.71354,-1.66588 3.71354,-3.71354 z m -2.16105,0 c 0,0.85606 -0.69643,1.5525 -1.55249,1.5525 h -0.0532 c -0.85606,0 -1.5525,-0.69644 -1.5525,-1.5525 v -3.1802 c 0,-0.85606 0.69644,-1.55249 1.5525,-1.55249 h 0.0532 c 0.85606,0 1.55249,0.69643 1.55249,1.55249 z"
       id="path94"
       inkscape:connector-curvature="0" /><path
       style="stroke-width:0.14406979;fill:#ffffff"
       d="m 220.64947,147.31472 h -0.0532 c -2.04766,0 -3.71354,1.66587 -3.71354,3.71354 v 3.18019 c 0,2.04767 1.66588,3.71355 3.71354,3.71355 h 0.0532 c 2.04767,0 3.71355,-1.66588 3.71355,-3.71355 v -3.18019 c 0,-2.04752 -1.66588,-3.71354 -3.71355,-3.71354 z m 1.5525,6.89388 c 0,0.85606 -0.69644,1.5525 -1.5525,1.5525 h -0.0532 c -0.85606,0 -1.5525,-0.69644 -1.5525,-1.5525 v -3.1802 c 0,-0.85606 0.69644,-1.55249 1.5525,-1.55249 h 0.0532 c 0.85606,0 1.5525,0.69643 1.5525,1.55249 z"
       id="path96"
       inkscape:connector-curvature="0" /><path
       style="stroke-width:0.14406979;fill:#ffffff"
       d="m 226.26044,10.656342 h -0.0532 c -2.04767,0 -3.71355,1.66588 -3.71355,3.71354 v 3.1802 c 0,2.04767 1.66588,3.71354 3.71355,3.71354 h 0.0532 c 0.59673,0 1.08052,-0.48379 1.08052,-1.08052 0,-0.59674 -0.48379,-1.08053 -1.08052,-1.08053 h -0.0532 c -0.85606,0 -1.5525,-0.69643 -1.5525,-1.55249 v -3.1802 c 0,-0.856061 0.69644,-1.55249 1.5525,-1.55249 h 0.0532 c 0.85606,0 1.55249,0.696429 1.55249,1.55249 0,0.59674 0.48379,1.08053 1.08052,1.08053 0.59674,0 1.08053,-0.48379 1.08053,-1.08053 1.4e-4,-2.04766 -1.66573,-3.71354 -3.71354,-3.71354 z"
       id="path98"
       inkscape:connector-curvature="0" /><path
       style="stroke-width:0.14406979;fill:#ffffff"
       d="m 222.51461,186.64818 h -0.0532 c -2.04766,0 -3.71354,1.66588 -3.71354,3.71354 v 3.1802 c 0,2.04767 1.66588,3.71354 3.71354,3.71354 h 0.0532 c 2.04767,0 3.71354,-1.66587 3.71354,-3.71354 v -3.1802 c 0,-2.04766 -1.66587,-3.71354 -3.71354,-3.71354 z m 1.55249,6.89388 c 0,0.85607 -0.69643,1.5525 -1.55249,1.5525 h -0.0532 c -0.85606,0 -1.5525,-0.69643 -1.5525,-1.5525 v -3.18034 c 0,-0.85606 0.69644,-1.55249 1.5525,-1.55249 h 0.0532 c 0.85606,0 1.55249,0.69643 1.55249,1.55249 z"
       id="path100"
       inkscape:connector-curvature="0" /><path
       style="stroke-width:0.14406979;fill:#ffffff"
       d="m 156.35635,92.898208 h -0.0532 c -2.04766,0 -3.71354,1.66588 -3.71354,3.713552 v 3.180192 c 0,2.047668 1.66588,3.713538 3.71354,3.713538 h 0.0532 c 2.04766,0 3.71354,-1.66587 3.71354,-3.713538 V 96.61176 c 1.5e-4,-2.047532 -1.66573,-3.713552 -3.71354,-3.713552 z m 1.55264,6.893894 c 0,0.856058 -0.69643,1.552498 -1.55249,1.552498 h -0.0532 c -0.85607,0 -1.5525,-0.69644 -1.5525,-1.552498 V 96.61176 c 0,-0.856072 0.69643,-1.552502 1.5525,-1.552502 h 0.0532 c 0.85606,0 1.55249,0.69643 1.55249,1.552502 z"
       id="path102"
       inkscape:connector-curvature="0" /><path
       inkscape:connector-curvature="0"
       id="path104"
       d="m 211.3291,60.435681 c 0,0.59673 0.48378,1.08052 1.08052,1.08052 0.59674,0 1.08052,-0.48379 1.08052,-1.08052 v -8.44638 c 0,-0.43711 -0.26321,-0.831 -0.66704,-0.99826 -0.40354,-0.16712 -0.86845,-0.0748 -1.17748,0.23426 l -2.7379,2.7379 c -0.42198,0.42198 -0.42198,1.10617 0,1.528 0.42198,0.42198 1.10617,0.42198 1.528,0 l 0.89338,-0.89337 z"
       style="stroke-width:0.14406979;fill:#ffffff" /><path
       inkscape:connector-curvature="0"
       id="path106"
       d="m 153.50444,185.8993 0.89337,-0.89338 v 5.83785 c 0,0.59674 0.48379,1.08052 1.08053,1.08052 0.59674,0 1.08052,-0.48378 1.08052,-1.08052 v -8.44638 c 0,-0.43711 -0.26321,-0.83099 -0.66704,-0.99826 -0.40354,-0.16712 -0.86845,-0.0748 -1.17748,0.23426 l -2.73791,2.7379 c -0.42197,0.42198 -0.42197,1.10617 0,1.52801 0.42199,0.42198 1.10617,0.42198 1.52801,0 z"
       style="stroke-width:0.14406979;fill:#ffffff" /><path
       inkscape:connector-curvature="0"
       id="path108"
       d="m 158.51139,215.92405 c -0.40354,-0.16712 -0.86845,-0.0748 -1.17748,0.23426 l -2.7379,2.7379 c -0.42198,0.42198 -0.42198,1.10617 0,1.528 0.42198,0.42198 1.10616,0.42198 1.528,0 l 0.89338,-0.89337 v 5.83785 c 0,0.59673 0.48379,1.08052 1.08052,1.08052 0.59674,0 1.08052,-0.48379 1.08052,-1.08052 v -8.44638 c 0,-0.43697 -0.26321,-0.831 -0.66704,-0.99826 z"
       style="stroke-width:0.14406979;fill:#ffffff" /><path
       inkscape:connector-curvature="0"
       id="path110"
       d="m 89.992403,4.1891519 c -0.40353,-0.16712 -0.86845,-0.0748 -1.17748,0.23426 l -2.7379,2.7379 c -0.42198,0.42198 -0.42198,1.1061699 0,1.5279997 0.42198,0.42199 1.10617,0.42199 1.528,0 l 0.89338,-0.8933698 v 3.1979202 c 0,0.59673 0.48379,1.08052 1.08052,1.08052 0.59674,0 1.08053,-0.48379 1.08053,-1.08052 V 5.1874119 c 0,-0.43711 -0.26322,-0.831 -0.66705,-0.99826 z"
       style="stroke-width:0.14406979;fill:#ffffff" /><path
       inkscape:connector-curvature="0"
       id="path112"
       d="m 194.22801,203.22958 v -3.1802 c 0,-2.04767 -1.66588,-3.71354 -3.71355,-3.71354 h -0.0532 c -2.04766,0 -3.71354,1.66587 -3.71354,3.71354 v 3.1802 c 0,2.04766 1.66588,3.71354 3.71354,3.71354 h 0.0532 c 2.04767,0 3.71355,-1.66588 3.71355,-3.71354 z m -2.16105,0 c 0,0.85606 -0.69643,1.55249 -1.5525,1.55249 h -0.0532 c -0.85606,0 -1.55249,-0.69643 -1.55249,-1.55249 v -3.1802 c 0,-0.85606 0.69643,-1.55249 1.55249,-1.55249 h 0.0532 c 0.85607,0 1.5525,0.69643 1.5525,1.55249 z"
       style="stroke-width:0.14406979;fill:#ffffff" /><path
       inkscape:connector-curvature="0"
       id="path114"
       d="m 37.922453,166.08014 h -0.0532 c -2.04767,0 -3.71355,1.66587 -3.71355,3.71354 v 3.18019 c 0,2.04767 1.66588,3.71355 3.71355,3.71355 h 0.0532 c 2.04766,0 3.71354,-1.66588 3.71354,-3.71355 v -3.18019 c 0,-2.04753 -1.66588,-3.71354 -3.71354,-3.71354 z m 1.5525,6.89388 c 0,0.85606 -0.69644,1.55249 -1.5525,1.55249 h -0.0532 c -0.85607,0 -1.5525,-0.69643 -1.5525,-1.55249 v -3.1802 c 0,-0.85606 0.69643,-1.55249 1.5525,-1.55249 h 0.0532 c 0.85606,0 1.5525,0.69643 1.5525,1.55249 z"
       style="stroke-width:0.14406979;fill:#ffffff" /><path
       inkscape:connector-curvature="0"
       id="path116"
       d="m 94.955064,41.37597 h -0.0532 c -2.04766,0 -3.71354,1.66588 -3.71354,3.71354 v 3.1802 c 0,2.04766 1.66588,3.71354 3.71354,3.71354 h 0.0532 c 0.59674,0 1.08053,-0.48379 1.08053,-1.08052 0,-0.59674 -0.48379,-1.08053 -1.08053,-1.08053 h -0.0532 c -0.85606,0 -1.55249,-0.69643 -1.55249,-1.55249 v -3.1802 c 0,-0.85606 0.69643,-1.5525 1.55249,-1.5525 h 0.0532 c 0.85606,0 1.5525,0.69644 1.5525,1.5525 0,0.59674 0.48378,1.08053 1.08052,1.08053 0.59674,0 1.08052,-0.48379 1.08052,-1.08053 1.4e-4,-2.04766 -1.66573,-3.71354 -3.71354,-3.71354 z"
       style="stroke-width:0.14406979;fill:#ffffff" /><path
       inkscape:connector-curvature="0"
       id="path118"
       d="m 99.089409,108.93803 h -0.0532 c -2.04766,0 -3.71354,1.66588 -3.71354,3.71354 v 3.1802 c 0,2.04766 1.66588,3.71354 3.71354,3.71354 h 0.0532 c 2.047661,0 3.713541,-1.66588 3.713541,-3.71354 v -3.1802 c 0,-2.04766 -1.66588,-3.71354 -3.713541,-3.71354 z m 1.552491,6.89388 c 0,0.85607 -0.696431,1.5525 -1.552491,1.5525 h -0.0532 c -0.85606,0 -1.55249,-0.69643 -1.55249,-1.5525 v -3.18034 c 0,-0.85606 0.69643,-1.5525 1.55249,-1.5525 h 0.0532 c 0.85606,0 1.552491,0.69644 1.552491,1.5525 z"
       style="stroke-width:0.14406979;fill:#ffffff" /><path
       inkscape:connector-curvature="0"
       id="path120"
       d="m 186.37005,14.959769 h -0.0532 c -2.04766,0 -3.71354,1.66588 -3.71354,3.713541 v 3.1802 c 0,2.04766 1.66588,3.71354 3.71354,3.71354 h 0.0532 c 2.04767,0 3.71355,-1.66588 3.71355,-3.71354 v -3.1802 c 1.4e-4,-2.047521 -1.66574,-3.713541 -3.71355,-3.713541 z m 1.55264,6.893881 c 0,0.85606 -0.69643,1.5525 -1.55249,1.5525 h -0.0532 c -0.85606,0 -1.5525,-0.69644 -1.5525,-1.5525 v -3.18034 c 0,-0.856061 0.69644,-1.552501 1.5525,-1.552501 h 0.0532 c 0.85606,0 1.55249,0.69644 1.55249,1.552501 z"
       style="stroke-width:0.14406979;fill:#ffffff" /></g></svg>