<?xml version="1.0" encoding="UTF-8" standalone="no"?>
<!-- Created with Inkscape (http://www.inkscape.org/) -->

<svg
   xmlns:dc="http://purl.org/dc/elements/1.1/"
   xmlns:cc="http://creativecommons.org/ns#"
   xmlns:rdf="http://www.w3.org/1999/02/22-rdf-syntax-ns#"
   xmlns:svg="http://www.w3.org/2000/svg"
   xmlns="http://www.w3.org/2000/svg"
   xmlns:sodipodi="http://sodipodi.sourceforge.net/DTD/sodipodi-0.dtd"
   xmlns:inkscape="http://www.inkscape.org/namespaces/inkscape"
   width="1332.6017"
   height="1045.9283"
   viewBox="0 0 352.58417 276.73519"
   version="1.1"
   id="svg8"
   inkscape:version="0.92.2 5c3e80d, 2017-08-06"
   sodipodi:docname="Fruit Bandits Icon.svg">
  <defs
     id="defs2" />
  <sodipodi:namedview
     id="base"
     pagecolor="#ffffff"
     bordercolor="#666666"
     borderopacity="1.0"
     inkscape:pageopacity="0.0"
     inkscape:pageshadow="2"
     inkscape:zoom="0.1767767"
     inkscape:cx="-1363.3065"
     inkscape:cy="838.24436"
     inkscape:document-units="px"
     inkscape:current-layer="layer1"
     showgrid="false"
     inkscape:window-width="1920"
     inkscape:window-height="1035"
     inkscape:window-x="0"
     inkscape:window-y="1"
     inkscape:window-maximized="1"
     showguides="false"
     inkscape:guide-bbox="true"
     inkscape:snap-global="true"
     units="px"
     inkscape:snap-bbox="true"
     fit-margin-top="0"
     fit-margin-left="0"
     fit-margin-right="0"
     fit-margin-bottom="0" />
  <metadata
     id="metadata5">
    <rdf:RDF>
      <cc:Work
         rdf:about="">
        <dc:format>image/svg+xml</dc:format>
        <dc:type
           rdf:resource="http://purl.org/dc/dcmitype/StillImage" />
        <dc:title />
      </cc:Work>
    </rdf:RDF>
  </metadata>
  <g
     inkscape:label="Layer 1"
     inkscape:groupmode="layer"
     id="layer1"
     transform="translate(87.070549,-1467.3197)" />
  <g
     inkscape:groupmode="layer"
     id="layer2"
     inkscape:label="Layer 2"
     transform="translate(87.070549,-1467.3197)">
    <g
       inkscape:label="Layer 1"
       id="layer1-9"
       transform="translate(587.08107,479.41377)" />
    <g
       transform="translate(631.84871,479.41377)"
       id="g4646">
      <g
         transform="translate(1.2089346e-5,0)"
         style="fill:#000000;fill-opacity:1"
         id="g4648">
        <g
           style="fill:#000000;fill-opacity:1"
           id="g4650" />
      </g>
      <g
         style="fill:#000000;fill-opacity:1"
         transform="translate(0,-0.56772249)"
         id="g4656" />
    </g>
    <g
       transform="translate(636.52593,479.41377)"
       id="g4712">
      <g
         transform="translate(1.2089346e-5,0)"
         style="fill:#000000;fill-opacity:1"
         id="g4714" />
    </g>
    <g
       id="g4770"
       style="fill:#000000;fill-opacity:1"
       transform="translate(643.07405,479.41377)">
      <g
         id="g4772"
         style="fill:#000000;fill-opacity:1" />
    </g>
    <g
       transform="matrix(0.26458333,0,0,0.26458333,274.7313,1359.4702)"
       id="g27410" />
    <g
       transform="matrix(0.26458333,0,0,0.26458333,274.7313,1359.4702)"
       id="g27412" />
    <g
       transform="matrix(0.26458333,0,0,0.26458333,274.7313,1359.4702)"
       id="g27414" />
    <g
       transform="matrix(0.26458333,0,0,0.26458333,274.7313,1359.4702)"
       id="g27416" />
    <g
       transform="matrix(0.26458333,0,0,0.26458333,274.7313,1359.4702)"
       id="g27418" />
    <g
       transform="matrix(0.26458333,0,0,0.26458333,274.7313,1359.4702)"
       id="g27420" />
    <g
       transform="matrix(0.26458333,0,0,0.26458333,274.7313,1359.4702)"
       id="g27422" />
    <g
       transform="matrix(0.26458333,0,0,0.26458333,274.7313,1359.4702)"
       id="g27424" />
    <g
       transform="matrix(0.26458333,0,0,0.26458333,274.7313,1359.4702)"
       id="g27426" />
    <g
       transform="matrix(0.26458333,0,0,0.26458333,274.7313,1359.4702)"
       id="g27428" />
    <g
       transform="matrix(0.26458333,0,0,0.26458333,274.7313,1359.4702)"
       id="g27430" />
    <g
       transform="matrix(0.26458333,0,0,0.26458333,274.7313,1359.4702)"
       id="g27432" />
    <g
       transform="matrix(0.26458333,0,0,0.26458333,274.7313,1359.4702)"
       id="g27434" />
    <g
       transform="matrix(0.26458333,0,0,0.26458333,274.7313,1359.4702)"
       id="g27436" />
    <g
       transform="matrix(0.26458333,0,0,0.26458333,274.7313,1359.4702)"
       id="g27438" />
    <g
       id="g25032"
       style="fill:#20bdc6;fill-opacity:1;stroke:none;stroke-opacity:1"
       transform="translate(587.08107,479.41377)" />
    <g
       style="fill:#ffffff;fill-opacity:1;stroke:#72a3d6;stroke-width:1.79572189;stroke-miterlimit:4;stroke-dasharray:none;stroke-opacity:1"
       id="g26021"
       transform="matrix(0.45312271,0,0,0.45312271,490.4298,1207.2893)" />
    <g
       style="fill:#ffffff;fill-opacity:1;stroke:#72a3d6;stroke-width:1.79572189;stroke-miterlimit:4;stroke-dasharray:none;stroke-opacity:1"
       id="g26023"
       transform="matrix(0.45312271,0,0,0.45312271,490.4298,1207.2893)" />
    <g
       style="fill:#ffffff;fill-opacity:1;stroke:#72a3d6;stroke-width:1.79572189;stroke-miterlimit:4;stroke-dasharray:none;stroke-opacity:1"
       id="g26025"
       transform="matrix(0.45312271,0,0,0.45312271,490.4298,1207.2893)" />
    <g
       style="fill:#ffffff;fill-opacity:1;stroke:#72a3d6;stroke-width:1.79572189;stroke-miterlimit:4;stroke-dasharray:none;stroke-opacity:1"
       id="g26027"
       transform="matrix(0.45312271,0,0,0.45312271,490.4298,1207.2893)" />
    <g
       style="fill:#ffffff;fill-opacity:1;stroke:#72a3d6;stroke-width:1.79572189;stroke-miterlimit:4;stroke-dasharray:none;stroke-opacity:1"
       id="g26029"
       transform="matrix(0.45312271,0,0,0.45312271,490.4298,1207.2893)" />
    <g
       style="fill:#ffffff;fill-opacity:1;stroke:#72a3d6;stroke-width:1.79572189;stroke-miterlimit:4;stroke-dasharray:none;stroke-opacity:1"
       id="g26031"
       transform="matrix(0.45312271,0,0,0.45312271,490.4298,1207.2893)" />
    <g
       style="fill:#ffffff;fill-opacity:1;stroke:#72a3d6;stroke-width:1.79572189;stroke-miterlimit:4;stroke-dasharray:none;stroke-opacity:1"
       id="g26033"
       transform="matrix(0.45312271,0,0,0.45312271,490.4298,1207.2893)" />
    <g
       style="fill:#ffffff;fill-opacity:1;stroke:#72a3d6;stroke-width:1.79572189;stroke-miterlimit:4;stroke-dasharray:none;stroke-opacity:1"
       id="g26035"
       transform="matrix(0.45312271,0,0,0.45312271,490.4298,1207.2893)" />
    <g
       style="fill:#ffffff;fill-opacity:1;stroke:#72a3d6;stroke-width:1.79572189;stroke-miterlimit:4;stroke-dasharray:none;stroke-opacity:1"
       id="g26037"
       transform="matrix(0.45312271,0,0,0.45312271,490.4298,1207.2893)" />
    <g
       style="fill:#ffffff;fill-opacity:1;stroke:#72a3d6;stroke-width:1.79572189;stroke-miterlimit:4;stroke-dasharray:none;stroke-opacity:1"
       id="g26039"
       transform="matrix(0.45312271,0,0,0.45312271,490.4298,1207.2893)" />
    <g
       style="fill:#ffffff;fill-opacity:1;stroke:#72a3d6;stroke-width:1.79572189;stroke-miterlimit:4;stroke-dasharray:none;stroke-opacity:1"
       id="g26041"
       transform="matrix(0.45312271,0,0,0.45312271,490.4298,1207.2893)" />
    <g
       style="fill:#ffffff;fill-opacity:1;stroke:#72a3d6;stroke-width:1.79572189;stroke-miterlimit:4;stroke-dasharray:none;stroke-opacity:1"
       id="g26043"
       transform="matrix(0.45312271,0,0,0.45312271,490.4298,1207.2893)" />
    <g
       style="fill:#ffffff;fill-opacity:1;stroke:#72a3d6;stroke-width:1.79572189;stroke-miterlimit:4;stroke-dasharray:none;stroke-opacity:1"
       id="g26045"
       transform="matrix(0.45312271,0,0,0.45312271,490.4298,1207.2893)" />
    <g
       style="fill:#ffffff;fill-opacity:1;stroke:#72a3d6;stroke-width:1.79572189;stroke-miterlimit:4;stroke-dasharray:none;stroke-opacity:1"
       id="g26047"
       transform="matrix(0.45312271,0,0,0.45312271,490.4298,1207.2893)" />
    <g
       style="fill:#ffffff;fill-opacity:1;stroke:#72a3d6;stroke-width:1.79572189;stroke-miterlimit:4;stroke-dasharray:none;stroke-opacity:1"
       id="g26049"
       transform="matrix(0.45312271,0,0,0.45312271,490.4298,1207.2893)" />
    <g
       id="g26051"
       transform="matrix(0.01436744,0,0,0.01436744,712.5537,1357.9599)" />
    <g
       id="g26053"
       transform="matrix(0.01436744,0,0,0.01436744,712.5537,1357.9599)" />
    <g
       id="g26055"
       transform="matrix(0.01436744,0,0,0.01436744,712.5537,1357.9599)" />
    <g
       id="g26057"
       transform="matrix(0.01436744,0,0,0.01436744,712.5537,1357.9599)" />
    <g
       id="g26059"
       transform="matrix(0.01436744,0,0,0.01436744,712.5537,1357.9599)" />
    <g
       id="g26061"
       transform="matrix(0.01436744,0,0,0.01436744,712.5537,1357.9599)" />
    <g
       id="g26063"
       transform="matrix(0.01436744,0,0,0.01436744,712.5537,1357.9599)" />
    <g
       id="g26065"
       transform="matrix(0.01436744,0,0,0.01436744,712.5537,1357.9599)" />
    <g
       id="g26067"
       transform="matrix(0.01436744,0,0,0.01436744,712.5537,1357.9599)" />
    <g
       id="g26069"
       transform="matrix(0.01436744,0,0,0.01436744,712.5537,1357.9599)" />
    <g
       id="g26071"
       transform="matrix(0.01436744,0,0,0.01436744,712.5537,1357.9599)" />
    <g
       id="g26073"
       transform="matrix(0.01436744,0,0,0.01436744,712.5537,1357.9599)" />
    <g
       id="g26075"
       transform="matrix(0.01436744,0,0,0.01436744,712.5537,1357.9599)" />
    <g
       id="g26077"
       transform="matrix(0.01436744,0,0,0.01436744,712.5537,1357.9599)" />
    <g
       id="g26079"
       transform="matrix(0.01436744,0,0,0.01436744,712.5537,1357.9599)" />
    <g
       id="g26081"
       transform="matrix(0.01368742,0,0,0.01368742,669.13048,1350.6027)" />
    <g
       id="g26083"
       transform="matrix(0.01368742,0,0,0.01368742,669.13048,1350.6027)" />
    <g
       id="g26085"
       transform="matrix(0.01368742,0,0,0.01368742,669.13048,1350.6027)" />
    <g
       id="g26087"
       transform="matrix(0.01368742,0,0,0.01368742,669.13048,1350.6027)" />
    <g
       id="g26089"
       transform="matrix(0.01368742,0,0,0.01368742,669.13048,1350.6027)" />
    <g
       id="g26091"
       transform="matrix(0.01368742,0,0,0.01368742,669.13048,1350.6027)" />
    <g
       id="g26093"
       transform="matrix(0.01368742,0,0,0.01368742,669.13048,1350.6027)" />
    <g
       id="g26095"
       transform="matrix(0.01368742,0,0,0.01368742,669.13048,1350.6027)" />
    <g
       id="g26097"
       transform="matrix(0.01368742,0,0,0.01368742,669.13048,1350.6027)" />
    <g
       id="g26099"
       transform="matrix(0.01368742,0,0,0.01368742,669.13048,1350.6027)" />
    <g
       id="g26101"
       transform="matrix(0.01368742,0,0,0.01368742,669.13048,1350.6027)" />
    <g
       id="g26103"
       transform="matrix(0.01368742,0,0,0.01368742,669.13048,1350.6027)" />
    <g
       id="g26105"
       transform="matrix(0.01368742,0,0,0.01368742,669.13048,1350.6027)" />
    <g
       id="g26107"
       transform="matrix(0.01368742,0,0,0.01368742,669.13048,1350.6027)" />
    <g
       id="g26109"
       transform="matrix(0.01368742,0,0,0.01368742,669.13048,1350.6027)" />
    <g
       style="fill:#ffffff;fill-opacity:1"
       id="g26111"
       transform="matrix(0.1890409,0,0,0.1890409,255.96033,1496.1282)" />
    <g
       style="fill:#ffffff;fill-opacity:1"
       id="g26113"
       transform="matrix(0.1890409,0,0,0.1890409,255.96033,1496.1282)" />
    <g
       style="fill:#ffffff;fill-opacity:1"
       id="g26115"
       transform="matrix(0.1890409,0,0,0.1890409,255.96033,1496.1282)" />
    <g
       style="fill:#ffffff;fill-opacity:1"
       id="g26117"
       transform="matrix(0.1890409,0,0,0.1890409,255.96033,1496.1282)" />
    <g
       style="fill:#ffffff;fill-opacity:1"
       id="g26119"
       transform="matrix(0.1890409,0,0,0.1890409,255.96033,1496.1282)" />
    <g
       style="fill:#ffffff;fill-opacity:1"
       id="g26121"
       transform="matrix(0.1890409,0,0,0.1890409,255.96033,1496.1282)" />
    <g
       style="fill:#ffffff;fill-opacity:1"
       id="g26123"
       transform="matrix(0.1890409,0,0,0.1890409,255.96033,1496.1282)" />
    <g
       style="fill:#ffffff;fill-opacity:1"
       id="g26125"
       transform="matrix(0.1890409,0,0,0.1890409,255.96033,1496.1282)" />
    <g
       style="fill:#ffffff;fill-opacity:1"
       id="g26127"
       transform="matrix(0.1890409,0,0,0.1890409,255.96033,1496.1282)" />
    <g
       style="fill:#ffffff;fill-opacity:1"
       id="g26129"
       transform="matrix(0.1890409,0,0,0.1890409,255.96033,1496.1282)" />
    <g
       style="fill:#ffffff;fill-opacity:1"
       id="g26131"
       transform="matrix(0.1890409,0,0,0.1890409,255.96033,1496.1282)" />
    <g
       style="fill:#ffffff;fill-opacity:1"
       id="g26133"
       transform="matrix(0.1890409,0,0,0.1890409,255.96033,1496.1282)" />
    <g
       style="fill:#ffffff;fill-opacity:1"
       id="g26135"
       transform="matrix(0.1890409,0,0,0.1890409,255.96033,1496.1282)" />
    <g
       style="fill:#ffffff;fill-opacity:1"
       id="g26137"
       transform="matrix(0.1890409,0,0,0.1890409,255.96033,1496.1282)" />
    <g
       style="fill:#ffffff;fill-opacity:1"
       id="g26139"
       transform="matrix(0.1890409,0,0,0.1890409,255.96033,1496.1282)" />
    <g
       style="fill:#000000"
       id="g26141"
       transform="matrix(0.01308442,0,0,0.01308442,236.2681,1468.976)" />
    <g
       style="fill:#000000"
       id="g26143"
       transform="matrix(0.01308442,0,0,0.01308442,236.2681,1468.976)" />
    <g
       style="fill:#000000"
       id="g26145"
       transform="matrix(0.01308442,0,0,0.01308442,236.2681,1468.976)" />
    <g
       style="fill:#000000"
       id="g26147"
       transform="matrix(0.01308442,0,0,0.01308442,236.2681,1468.976)" />
    <g
       style="fill:#000000"
       id="g26149"
       transform="matrix(0.01308442,0,0,0.01308442,236.2681,1468.976)" />
    <g
       style="fill:#000000"
       id="g26151"
       transform="matrix(0.01308442,0,0,0.01308442,236.2681,1468.976)" />
    <g
       style="fill:#000000"
       id="g26153"
       transform="matrix(0.01308442,0,0,0.01308442,236.2681,1468.976)" />
    <g
       style="fill:#000000"
       id="g26155"
       transform="matrix(0.01308442,0,0,0.01308442,236.2681,1468.976)" />
    <g
       style="fill:#000000"
       id="g26157"
       transform="matrix(0.01308442,0,0,0.01308442,236.2681,1468.976)" />
    <g
       style="fill:#000000"
       id="g26159"
       transform="matrix(0.01308442,0,0,0.01308442,236.2681,1468.976)" />
    <g
       style="fill:#000000"
       id="g26161"
       transform="matrix(0.01308442,0,0,0.01308442,236.2681,1468.976)" />
    <g
       style="fill:#000000"
       id="g26163"
       transform="matrix(0.01308442,0,0,0.01308442,236.2681,1468.976)" />
    <g
       style="fill:#000000"
       id="g26165"
       transform="matrix(0.01308442,0,0,0.01308442,236.2681,1468.976)" />
    <g
       style="fill:#000000"
       id="g26167"
       transform="matrix(0.01308442,0,0,0.01308442,236.2681,1468.976)" />
    <g
       style="fill:#000000"
       id="g26169"
       transform="matrix(0.01308442,0,0,0.01308442,236.2681,1468.976)" />
    <g
       style="fill:#4d4d4d;fill-opacity:1"
       id="g26171"
       transform="matrix(0.01100417,0,0,0.01100417,615.26512,1351.0384)" />
    <g
       style="fill:#4d4d4d;fill-opacity:1"
       id="g26173"
       transform="matrix(0.01100417,0,0,0.01100417,615.26512,1351.0384)" />
    <g
       style="fill:#4d4d4d;fill-opacity:1"
       id="g26175"
       transform="matrix(0.01100417,0,0,0.01100417,615.26512,1351.0384)" />
    <g
       style="fill:#4d4d4d;fill-opacity:1"
       id="g26177"
       transform="matrix(0.01100417,0,0,0.01100417,615.26512,1351.0384)" />
    <g
       style="fill:#4d4d4d;fill-opacity:1"
       id="g26179"
       transform="matrix(0.01100417,0,0,0.01100417,615.26512,1351.0384)" />
    <g
       style="fill:#4d4d4d;fill-opacity:1"
       id="g26181"
       transform="matrix(0.01100417,0,0,0.01100417,615.26512,1351.0384)" />
    <g
       style="fill:#4d4d4d;fill-opacity:1"
       id="g26183"
       transform="matrix(0.01100417,0,0,0.01100417,615.26512,1351.0384)" />
    <g
       style="fill:#4d4d4d;fill-opacity:1"
       id="g26185"
       transform="matrix(0.01100417,0,0,0.01100417,615.26512,1351.0384)" />
    <g
       style="fill:#4d4d4d;fill-opacity:1"
       id="g26187"
       transform="matrix(0.01100417,0,0,0.01100417,615.26512,1351.0384)" />
    <g
       style="fill:#4d4d4d;fill-opacity:1"
       id="g26189"
       transform="matrix(0.01100417,0,0,0.01100417,615.26512,1351.0384)" />
    <g
       style="fill:#4d4d4d;fill-opacity:1"
       id="g26191"
       transform="matrix(0.01100417,0,0,0.01100417,615.26512,1351.0384)" />
    <g
       style="fill:#4d4d4d;fill-opacity:1"
       id="g26193"
       transform="matrix(0.01100417,0,0,0.01100417,615.26512,1351.0384)" />
    <g
       style="fill:#4d4d4d;fill-opacity:1"
       id="g26195"
       transform="matrix(0.01100417,0,0,0.01100417,615.26512,1351.0384)" />
    <g
       style="fill:#4d4d4d;fill-opacity:1"
       id="g26197"
       transform="matrix(0.01100417,0,0,0.01100417,615.26512,1351.0384)" />
    <g
       style="fill:#4d4d4d;fill-opacity:1"
       id="g26199"
       transform="matrix(0.01100417,0,0,0.01100417,615.26512,1351.0384)" />
    <g
       id="g26201"
       transform="matrix(0.01436744,0,0,0.01436744,828.1436,1357.9599)" />
    <g
       id="g26203"
       transform="matrix(0.01436744,0,0,0.01436744,828.1436,1357.9599)" />
    <g
       id="g26205"
       transform="matrix(0.01436744,0,0,0.01436744,828.1436,1357.9599)" />
    <g
       id="g26207"
       transform="matrix(0.01436744,0,0,0.01436744,828.1436,1357.9599)" />
    <g
       id="g26209"
       transform="matrix(0.01436744,0,0,0.01436744,828.1436,1357.9599)" />
    <g
       id="g26211"
       transform="matrix(0.01436744,0,0,0.01436744,828.1436,1357.9599)" />
    <g
       id="g26213"
       transform="matrix(0.01436744,0,0,0.01436744,828.1436,1357.9599)" />
    <g
       id="g26215"
       transform="matrix(0.01436744,0,0,0.01436744,828.1436,1357.9599)" />
    <g
       id="g26217"
       transform="matrix(0.01436744,0,0,0.01436744,828.1436,1357.9599)" />
    <g
       id="g26219"
       transform="matrix(0.01436744,0,0,0.01436744,828.1436,1357.9599)" />
    <g
       id="g26221"
       transform="matrix(0.01436744,0,0,0.01436744,828.1436,1357.9599)" />
    <g
       id="g26223"
       transform="matrix(0.01436744,0,0,0.01436744,828.1436,1357.9599)" />
    <g
       id="g26225"
       transform="matrix(0.01436744,0,0,0.01436744,828.1436,1357.9599)" />
    <g
       id="g26227"
       transform="matrix(0.01436744,0,0,0.01436744,828.1436,1357.9599)" />
    <g
       id="g26229"
       transform="matrix(0.01436744,0,0,0.01436744,828.1436,1357.9599)" />
    <g
       id="g26231"
       transform="matrix(0.01368742,0,0,0.01368742,784.72039,1350.6027)" />
    <g
       id="g26233"
       transform="matrix(0.01368742,0,0,0.01368742,784.72039,1350.6027)" />
    <g
       id="g26235"
       transform="matrix(0.01368742,0,0,0.01368742,784.72039,1350.6027)" />
    <g
       id="g26237"
       transform="matrix(0.01368742,0,0,0.01368742,784.72039,1350.6027)" />
    <g
       id="g26239"
       transform="matrix(0.01368742,0,0,0.01368742,784.72039,1350.6027)" />
    <g
       id="g26241"
       transform="matrix(0.01368742,0,0,0.01368742,784.72039,1350.6027)" />
    <g
       id="g26243"
       transform="matrix(0.01368742,0,0,0.01368742,784.72039,1350.6027)" />
    <g
       id="g26245"
       transform="matrix(0.01368742,0,0,0.01368742,784.72039,1350.6027)" />
    <g
       id="g26247"
       transform="matrix(0.01368742,0,0,0.01368742,784.72039,1350.6027)" />
    <g
       id="g26249"
       transform="matrix(0.01368742,0,0,0.01368742,784.72039,1350.6027)" />
    <g
       id="g26251"
       transform="matrix(0.01368742,0,0,0.01368742,784.72039,1350.6027)" />
    <g
       id="g26253"
       transform="matrix(0.01368742,0,0,0.01368742,784.72039,1350.6027)" />
    <g
       id="g26255"
       transform="matrix(0.01368742,0,0,0.01368742,784.72039,1350.6027)" />
    <g
       id="g26257"
       transform="matrix(0.01368742,0,0,0.01368742,784.72039,1350.6027)" />
    <g
       id="g26259"
       transform="matrix(0.01368742,0,0,0.01368742,784.72039,1350.6027)" />
    <g
       id="g26261"
       style="fill:#36364a;fill-opacity:1"
       transform="matrix(0.04646131,0,0,0.04646131,778.48777,1428.0896)" />
    <g
       id="g26263"
       style="fill:#36364a;fill-opacity:1"
       transform="matrix(0.04646131,0,0,0.04646131,778.48777,1428.0896)" />
    <g
       id="g26265"
       style="fill:#36364a;fill-opacity:1"
       transform="matrix(0.04646131,0,0,0.04646131,778.48777,1428.0896)" />
    <g
       id="g26267"
       style="fill:#36364a;fill-opacity:1"
       transform="matrix(0.04646131,0,0,0.04646131,778.48777,1428.0896)" />
    <g
       id="g26269"
       style="fill:#36364a;fill-opacity:1"
       transform="matrix(0.04646131,0,0,0.04646131,778.48777,1428.0896)" />
    <g
       id="g26271"
       style="fill:#36364a;fill-opacity:1"
       transform="matrix(0.04646131,0,0,0.04646131,778.48777,1428.0896)" />
    <g
       id="g26273"
       style="fill:#36364a;fill-opacity:1"
       transform="matrix(0.04646131,0,0,0.04646131,778.48777,1428.0896)" />
    <g
       id="g26275"
       style="fill:#36364a;fill-opacity:1"
       transform="matrix(0.04646131,0,0,0.04646131,778.48777,1428.0896)" />
    <g
       id="g26277"
       style="fill:#36364a;fill-opacity:1"
       transform="matrix(0.04646131,0,0,0.04646131,778.48777,1428.0896)" />
    <g
       id="g26279"
       style="fill:#36364a;fill-opacity:1"
       transform="matrix(0.04646131,0,0,0.04646131,778.48777,1428.0896)" />
    <g
       id="g26281"
       style="fill:#36364a;fill-opacity:1"
       transform="matrix(0.04646131,0,0,0.04646131,778.48777,1428.0896)" />
    <g
       id="g26283"
       style="fill:#36364a;fill-opacity:1"
       transform="matrix(0.04646131,0,0,0.04646131,778.48777,1428.0896)" />
    <g
       id="g26285"
       style="fill:#36364a;fill-opacity:1"
       transform="matrix(0.04646131,0,0,0.04646131,778.48777,1428.0896)" />
    <g
       id="g26287"
       style="fill:#36364a;fill-opacity:1"
       transform="matrix(0.04646131,0,0,0.04646131,778.48777,1428.0896)" />
    <g
       id="g26289"
       style="fill:#36364a;fill-opacity:1"
       transform="matrix(0.04646131,0,0,0.04646131,778.48777,1428.0896)" />
    <g
       style="fill:#999999"
       id="g26291"
       transform="matrix(0.0049674,-0.01262433,0.01262433,0.0049674,777.60563,1467.8602)" />
    <g
       style="fill:#999999"
       id="g26293"
       transform="matrix(0.0049674,-0.01262433,0.01262433,0.0049674,777.60563,1467.8602)" />
    <g
       style="fill:#999999"
       id="g26295"
       transform="matrix(0.0049674,-0.01262433,0.01262433,0.0049674,777.60563,1467.8602)" />
    <g
       style="fill:#999999"
       id="g26297"
       transform="matrix(0.0049674,-0.01262433,0.01262433,0.0049674,777.60563,1467.8602)" />
    <g
       style="fill:#999999"
       id="g26299"
       transform="matrix(0.0049674,-0.01262433,0.01262433,0.0049674,777.60563,1467.8602)" />
    <g
       style="fill:#999999"
       id="g26301"
       transform="matrix(0.0049674,-0.01262433,0.01262433,0.0049674,777.60563,1467.8602)" />
    <g
       style="fill:#999999"
       id="g26303"
       transform="matrix(0.0049674,-0.01262433,0.01262433,0.0049674,777.60563,1467.8602)" />
    <g
       style="fill:#999999"
       id="g26305"
       transform="matrix(0.0049674,-0.01262433,0.01262433,0.0049674,777.60563,1467.8602)" />
    <g
       style="fill:#999999"
       id="g26307"
       transform="matrix(0.0049674,-0.01262433,0.01262433,0.0049674,777.60563,1467.8602)" />
    <g
       style="fill:#999999"
       id="g26309"
       transform="matrix(0.0049674,-0.01262433,0.01262433,0.0049674,777.60563,1467.8602)" />
    <g
       style="fill:#999999"
       id="g26311"
       transform="matrix(0.0049674,-0.01262433,0.01262433,0.0049674,777.60563,1467.8602)" />
    <g
       style="fill:#999999"
       id="g26313"
       transform="matrix(0.0049674,-0.01262433,0.01262433,0.0049674,777.60563,1467.8602)" />
    <g
       style="fill:#999999"
       id="g26315"
       transform="matrix(0.0049674,-0.01262433,0.01262433,0.0049674,777.60563,1467.8602)" />
    <g
       style="fill:#999999"
       id="g26317"
       transform="matrix(0.0049674,-0.01262433,0.01262433,0.0049674,777.60563,1467.8602)" />
    <g
       style="fill:#999999"
       id="g26319"
       transform="matrix(0.0049674,-0.01262433,0.01262433,0.0049674,777.60563,1467.8602)" />
    <g
       style="fill:#999999"
       id="g26321"
       transform="matrix(-0.00535335,-0.01246557,0.01246557,-0.00535335,825.23458,1484.1617)" />
    <g
       style="fill:#999999"
       id="g26323"
       transform="matrix(-0.00535335,-0.01246557,0.01246557,-0.00535335,825.23458,1484.1617)" />
    <g
       style="fill:#999999"
       id="g26325"
       transform="matrix(-0.00535335,-0.01246557,0.01246557,-0.00535335,825.23458,1484.1617)" />
    <g
       style="fill:#999999"
       id="g26327"
       transform="matrix(-0.00535335,-0.01246557,0.01246557,-0.00535335,825.23458,1484.1617)" />
    <g
       style="fill:#999999"
       id="g26329"
       transform="matrix(-0.00535335,-0.01246557,0.01246557,-0.00535335,825.23458,1484.1617)" />
    <g
       style="fill:#999999"
       id="g26331"
       transform="matrix(-0.00535335,-0.01246557,0.01246557,-0.00535335,825.23458,1484.1617)" />
    <g
       style="fill:#999999"
       id="g26333"
       transform="matrix(-0.00535335,-0.01246557,0.01246557,-0.00535335,825.23458,1484.1617)" />
    <g
       style="fill:#999999"
       id="g26335"
       transform="matrix(-0.00535335,-0.01246557,0.01246557,-0.00535335,825.23458,1484.1617)" />
    <g
       style="fill:#999999"
       id="g26337"
       transform="matrix(-0.00535335,-0.01246557,0.01246557,-0.00535335,825.23458,1484.1617)" />
    <g
       style="fill:#999999"
       id="g26339"
       transform="matrix(-0.00535335,-0.01246557,0.01246557,-0.00535335,825.23458,1484.1617)" />
    <g
       style="fill:#999999"
       id="g26341"
       transform="matrix(-0.00535335,-0.01246557,0.01246557,-0.00535335,825.23458,1484.1617)" />
    <g
       style="fill:#999999"
       id="g26343"
       transform="matrix(-0.00535335,-0.01246557,0.01246557,-0.00535335,825.23458,1484.1617)" />
    <g
       style="fill:#999999"
       id="g26345"
       transform="matrix(-0.00535335,-0.01246557,0.01246557,-0.00535335,825.23458,1484.1617)" />
    <g
       style="fill:#999999"
       id="g26347"
       transform="matrix(-0.00535335,-0.01246557,0.01246557,-0.00535335,825.23458,1484.1617)" />
    <g
       style="fill:#999999"
       id="g26349"
       transform="matrix(-0.00535335,-0.01246557,0.01246557,-0.00535335,825.23458,1484.1617)" />
    <g
       style="opacity:0.5575221;fill:#008000"
       id="g26351"
       transform="matrix(0.00467699,-0.0071421,0.0071421,0.00467699,804.77798,1379.6484)" />
    <g
       style="opacity:0.5575221;fill:#008000"
       id="g26353"
       transform="matrix(0.00467699,-0.0071421,0.0071421,0.00467699,804.77798,1379.6484)" />
    <g
       style="opacity:0.5575221;fill:#008000"
       id="g26355"
       transform="matrix(0.00467699,-0.0071421,0.0071421,0.00467699,804.77798,1379.6484)" />
    <g
       style="opacity:0.5575221;fill:#008000"
       id="g26357"
       transform="matrix(0.00467699,-0.0071421,0.0071421,0.00467699,804.77798,1379.6484)" />
    <g
       style="opacity:0.5575221;fill:#008000"
       id="g26359"
       transform="matrix(0.00467699,-0.0071421,0.0071421,0.00467699,804.77798,1379.6484)" />
    <g
       style="opacity:0.5575221;fill:#008000"
       id="g26361"
       transform="matrix(0.00467699,-0.0071421,0.0071421,0.00467699,804.77798,1379.6484)" />
    <g
       style="opacity:0.5575221;fill:#008000"
       id="g26363"
       transform="matrix(0.00467699,-0.0071421,0.0071421,0.00467699,804.77798,1379.6484)" />
    <g
       style="opacity:0.5575221;fill:#008000"
       id="g26365"
       transform="matrix(0.00467699,-0.0071421,0.0071421,0.00467699,804.77798,1379.6484)" />
    <g
       style="opacity:0.5575221;fill:#008000"
       id="g26367"
       transform="matrix(0.00467699,-0.0071421,0.0071421,0.00467699,804.77798,1379.6484)" />
    <g
       style="opacity:0.5575221;fill:#008000"
       id="g26369"
       transform="matrix(0.00467699,-0.0071421,0.0071421,0.00467699,804.77798,1379.6484)" />
    <g
       style="opacity:0.5575221;fill:#008000"
       id="g26371"
       transform="matrix(0.00467699,-0.0071421,0.0071421,0.00467699,804.77798,1379.6484)" />
    <g
       style="opacity:0.5575221;fill:#008000"
       id="g26373"
       transform="matrix(0.00467699,-0.0071421,0.0071421,0.00467699,804.77798,1379.6484)" />
    <g
       style="opacity:0.5575221;fill:#008000"
       id="g26375"
       transform="matrix(0.00467699,-0.0071421,0.0071421,0.00467699,804.77798,1379.6484)" />
    <g
       style="opacity:0.5575221;fill:#008000"
       id="g26377"
       transform="matrix(0.00467699,-0.0071421,0.0071421,0.00467699,804.77798,1379.6484)" />
    <g
       style="opacity:0.5575221;fill:#008000"
       id="g26379"
       transform="matrix(0.00467699,-0.0071421,0.0071421,0.00467699,804.77798,1379.6484)" />
    <g
       style="fill:#999999"
       id="g26381"
       transform="matrix(0.01043825,-0.00866554,0.00866554,0.01043825,776.19155,1409.7825)" />
    <g
       style="fill:#999999"
       id="g26383"
       transform="matrix(0.01043825,-0.00866554,0.00866554,0.01043825,776.19155,1409.7825)" />
    <g
       style="fill:#999999"
       id="g26385"
       transform="matrix(0.01043825,-0.00866554,0.00866554,0.01043825,776.19155,1409.7825)" />
    <g
       style="fill:#999999"
       id="g26387"
       transform="matrix(0.01043825,-0.00866554,0.00866554,0.01043825,776.19155,1409.7825)" />
    <g
       style="fill:#999999"
       id="g26389"
       transform="matrix(0.01043825,-0.00866554,0.00866554,0.01043825,776.19155,1409.7825)" />
    <g
       style="fill:#999999"
       id="g26391"
       transform="matrix(0.01043825,-0.00866554,0.00866554,0.01043825,776.19155,1409.7825)" />
    <g
       style="fill:#999999"
       id="g26393"
       transform="matrix(0.01043825,-0.00866554,0.00866554,0.01043825,776.19155,1409.7825)" />
    <g
       style="fill:#999999"
       id="g26395"
       transform="matrix(0.01043825,-0.00866554,0.00866554,0.01043825,776.19155,1409.7825)" />
    <g
       style="fill:#999999"
       id="g26397"
       transform="matrix(0.01043825,-0.00866554,0.00866554,0.01043825,776.19155,1409.7825)" />
    <g
       style="fill:#999999"
       id="g26399"
       transform="matrix(0.01043825,-0.00866554,0.00866554,0.01043825,776.19155,1409.7825)" />
    <g
       style="fill:#999999"
       id="g26401"
       transform="matrix(0.01043825,-0.00866554,0.00866554,0.01043825,776.19155,1409.7825)" />
    <g
       style="fill:#999999"
       id="g26403"
       transform="matrix(0.01043825,-0.00866554,0.00866554,0.01043825,776.19155,1409.7825)" />
    <g
       style="fill:#999999"
       id="g26405"
       transform="matrix(0.01043825,-0.00866554,0.00866554,0.01043825,776.19155,1409.7825)" />
    <g
       style="fill:#999999"
       id="g26407"
       transform="matrix(0.01043825,-0.00866554,0.00866554,0.01043825,776.19155,1409.7825)" />
    <g
       style="fill:#999999"
       id="g26409"
       transform="matrix(0.01043825,-0.00866554,0.00866554,0.01043825,776.19155,1409.7825)" />
    <g
       id="g26411"
       style="fill:#36364a;fill-opacity:1"
       transform="matrix(0.05598711,0,0,0.05598711,940.09412,1393.9182)" />
    <g
       id="g26413"
       style="fill:#36364a;fill-opacity:1"
       transform="matrix(0.05598711,0,0,0.05598711,940.09412,1393.9182)" />
    <g
       id="g26415"
       style="fill:#36364a;fill-opacity:1"
       transform="matrix(0.05598711,0,0,0.05598711,940.09412,1393.9182)" />
    <g
       id="g26417"
       style="fill:#36364a;fill-opacity:1"
       transform="matrix(0.05598711,0,0,0.05598711,940.09412,1393.9182)" />
    <g
       id="g26419"
       style="fill:#36364a;fill-opacity:1"
       transform="matrix(0.05598711,0,0,0.05598711,940.09412,1393.9182)" />
    <g
       id="g26421"
       style="fill:#36364a;fill-opacity:1"
       transform="matrix(0.05598711,0,0,0.05598711,940.09412,1393.9182)" />
    <g
       id="g26423"
       style="fill:#36364a;fill-opacity:1"
       transform="matrix(0.05598711,0,0,0.05598711,940.09412,1393.9182)" />
    <g
       id="g26425"
       style="fill:#36364a;fill-opacity:1"
       transform="matrix(0.05598711,0,0,0.05598711,940.09412,1393.9182)" />
    <g
       id="g26427"
       style="fill:#36364a;fill-opacity:1"
       transform="matrix(0.05598711,0,0,0.05598711,940.09412,1393.9182)" />
    <g
       id="g26429"
       style="fill:#36364a;fill-opacity:1"
       transform="matrix(0.05598711,0,0,0.05598711,940.09412,1393.9182)" />
    <g
       id="g26431"
       style="fill:#36364a;fill-opacity:1"
       transform="matrix(0.05598711,0,0,0.05598711,940.09412,1393.9182)" />
    <g
       id="g26433"
       style="fill:#36364a;fill-opacity:1"
       transform="matrix(0.05598711,0,0,0.05598711,940.09412,1393.9182)" />
    <g
       id="g26435"
       style="fill:#36364a;fill-opacity:1"
       transform="matrix(0.05598711,0,0,0.05598711,940.09412,1393.9182)" />
    <g
       id="g26437"
       style="fill:#36364a;fill-opacity:1"
       transform="matrix(0.05598711,0,0,0.05598711,940.09412,1393.9182)" />
    <g
       id="g26439"
       style="fill:#36364a;fill-opacity:1"
       transform="matrix(0.05598711,0,0,0.05598711,940.09412,1393.9182)" />
    <g
       id="g26441"
       style="opacity:0.37168142"
       transform="matrix(0.08253641,0,0,0.08253641,682.17798,1230.7919)">
      <g
         id="g26443" />
    </g>
    <g
       style="fill:#607d83;fill-opacity:0.92491353"
       id="g26459"
       transform="matrix(0.09616296,0,0,0.09616296,783.16005,1648.9617)" />
    <g
       style="fill:#607d83;fill-opacity:0.92491353"
       id="g26461"
       transform="matrix(0.09616296,0,0,0.09616296,783.16005,1648.9617)" />
    <g
       style="fill:#607d83;fill-opacity:0.92491353"
       id="g26463"
       transform="matrix(0.09616296,0,0,0.09616296,783.16005,1648.9617)" />
    <g
       style="fill:#607d83;fill-opacity:0.92491353"
       id="g26465"
       transform="matrix(0.09616296,0,0,0.09616296,783.16005,1648.9617)" />
    <g
       style="fill:#607d83;fill-opacity:0.92491353"
       id="g26467"
       transform="matrix(0.09616296,0,0,0.09616296,783.16005,1648.9617)" />
    <g
       style="fill:#607d83;fill-opacity:0.92491353"
       id="g26469"
       transform="matrix(0.09616296,0,0,0.09616296,783.16005,1648.9617)" />
    <g
       style="fill:#607d83;fill-opacity:0.92491353"
       id="g26471"
       transform="matrix(0.09616296,0,0,0.09616296,783.16005,1648.9617)" />
    <g
       style="fill:#607d83;fill-opacity:0.92491353"
       id="g26473"
       transform="matrix(0.09616296,0,0,0.09616296,783.16005,1648.9617)" />
    <g
       style="fill:#607d83;fill-opacity:0.92491353"
       id="g26475"
       transform="matrix(0.09616296,0,0,0.09616296,783.16005,1648.9617)" />
    <g
       style="fill:#607d83;fill-opacity:0.92491353"
       id="g26477"
       transform="matrix(0.09616296,0,0,0.09616296,783.16005,1648.9617)" />
    <g
       style="fill:#607d83;fill-opacity:0.92491353"
       id="g26479"
       transform="matrix(0.09616296,0,0,0.09616296,783.16005,1648.9617)" />
    <g
       style="fill:#607d83;fill-opacity:0.92491353"
       id="g26481"
       transform="matrix(0.09616296,0,0,0.09616296,783.16005,1648.9617)" />
    <g
       style="fill:#607d83;fill-opacity:0.92491353"
       id="g26483"
       transform="matrix(0.09616296,0,0,0.09616296,783.16005,1648.9617)" />
    <g
       style="fill:#607d83;fill-opacity:0.92491353"
       id="g26485"
       transform="matrix(0.09616296,0,0,0.09616296,783.16005,1648.9617)" />
    <g
       style="fill:#607d83;fill-opacity:0.92491353"
       id="g26487"
       transform="matrix(0.09616296,0,0,0.09616296,783.16005,1648.9617)" />
    <flowRoot
       xml:space="preserve"
       id="flowRoot26489"
       style="font-style:normal;font-weight:normal;line-height:0.01%;font-family:sans-serif;letter-spacing:0px;word-spacing:0px;fill:#4d4d4d;fill-opacity:1;stroke:none"
       transform="matrix(0.19505084,0,0,0.19505084,990.51418,852.21513)"><flowRegion
         id="flowRegion26491"
         style="font-family:sans-serif"><rect
           style="font-family:sans-serif;fill:#4d4d4d"
           id="rect26493"
           width="161.22035"
           height="166.8772"
           x="-2884.9956"
           y="1555.8223" /></flowRegion><flowPara
         id="flowPara26495"
         style="font-weight:bold;font-size:40px;line-height:1.25;font-family:sans-serif;-inkscape-font-specification:'Sans Bold';fill:#4d4d4d">Leaderboard</flowPara></flowRoot>    <g
       style="fill:#ffffff;fill-opacity:1;stroke:#72a3d6;stroke-width:1.79572189;stroke-miterlimit:4;stroke-dasharray:none;stroke-opacity:1"
       id="g28451"
       transform="matrix(0.54609322,0,0,0.54609322,-194.78679,1195.8828)" />
    <g
       style="fill:#ffffff;fill-opacity:1;stroke:#72a3d6;stroke-width:1.79572189;stroke-miterlimit:4;stroke-dasharray:none;stroke-opacity:1"
       id="g28453"
       transform="matrix(0.54609322,0,0,0.54609322,-194.78679,1195.8828)" />
    <g
       style="fill:#ffffff;fill-opacity:1;stroke:#72a3d6;stroke-width:1.79572189;stroke-miterlimit:4;stroke-dasharray:none;stroke-opacity:1"
       id="g28455"
       transform="matrix(0.54609322,0,0,0.54609322,-194.78679,1195.8828)" />
    <g
       style="fill:#ffffff;fill-opacity:1;stroke:#72a3d6;stroke-width:1.79572189;stroke-miterlimit:4;stroke-dasharray:none;stroke-opacity:1"
       id="g28457"
       transform="matrix(0.54609322,0,0,0.54609322,-194.78679,1195.8828)" />
    <g
       style="fill:#ffffff;fill-opacity:1;stroke:#72a3d6;stroke-width:1.79572189;stroke-miterlimit:4;stroke-dasharray:none;stroke-opacity:1"
       id="g28459"
       transform="matrix(0.54609322,0,0,0.54609322,-194.78679,1195.8828)" />
    <g
       style="fill:#ffffff;fill-opacity:1;stroke:#72a3d6;stroke-width:1.79572189;stroke-miterlimit:4;stroke-dasharray:none;stroke-opacity:1"
       id="g28461"
       transform="matrix(0.54609322,0,0,0.54609322,-194.78679,1195.8828)" />
    <g
       style="fill:#ffffff;fill-opacity:1;stroke:#72a3d6;stroke-width:1.79572189;stroke-miterlimit:4;stroke-dasharray:none;stroke-opacity:1"
       id="g28463"
       transform="matrix(0.54609322,0,0,0.54609322,-194.78679,1195.8828)" />
    <g
       style="fill:#ffffff;fill-opacity:1;stroke:#72a3d6;stroke-width:1.79572189;stroke-miterlimit:4;stroke-dasharray:none;stroke-opacity:1"
       id="g28465"
       transform="matrix(0.54609322,0,0,0.54609322,-194.78679,1195.8828)" />
    <g
       style="fill:#ffffff;fill-opacity:1;stroke:#72a3d6;stroke-width:1.79572189;stroke-miterlimit:4;stroke-dasharray:none;stroke-opacity:1"
       id="g28467"
       transform="matrix(0.54609322,0,0,0.54609322,-194.78679,1195.8828)" />
    <g
       style="fill:#ffffff;fill-opacity:1;stroke:#72a3d6;stroke-width:1.79572189;stroke-miterlimit:4;stroke-dasharray:none;stroke-opacity:1"
       id="g28469"
       transform="matrix(0.54609322,0,0,0.54609322,-194.78679,1195.8828)" />
    <g
       style="fill:#ffffff;fill-opacity:1;stroke:#72a3d6;stroke-width:1.79572189;stroke-miterlimit:4;stroke-dasharray:none;stroke-opacity:1"
       id="g28471"
       transform="matrix(0.54609322,0,0,0.54609322,-194.78679,1195.8828)" />
    <g
       style="fill:#ffffff;fill-opacity:1;stroke:#72a3d6;stroke-width:1.79572189;stroke-miterlimit:4;stroke-dasharray:none;stroke-opacity:1"
       id="g28473"
       transform="matrix(0.54609322,0,0,0.54609322,-194.78679,1195.8828)" />
    <g
       style="fill:#ffffff;fill-opacity:1;stroke:#72a3d6;stroke-width:1.79572189;stroke-miterlimit:4;stroke-dasharray:none;stroke-opacity:1"
       id="g28475"
       transform="matrix(0.54609322,0,0,0.54609322,-194.78679,1195.8828)" />
    <g
       style="fill:#ffffff;fill-opacity:1;stroke:#72a3d6;stroke-width:1.79572189;stroke-miterlimit:4;stroke-dasharray:none;stroke-opacity:1"
       id="g28477"
       transform="matrix(0.54609322,0,0,0.54609322,-194.78679,1195.8828)" />
    <g
       style="fill:#ffffff;fill-opacity:1;stroke:#72a3d6;stroke-width:1.79572189;stroke-miterlimit:4;stroke-dasharray:none;stroke-opacity:1"
       id="g28479"
       transform="matrix(0.54609322,0,0,0.54609322,-194.78679,1195.8828)" />
    <g
       id="g28481"
       transform="matrix(0.01731531,0,0,0.01731531,72.91189,1377.4675)" />
    <g
       id="g28483"
       transform="matrix(0.01731531,0,0,0.01731531,72.91189,1377.4675)" />
    <g
       id="g28485"
       transform="matrix(0.01731531,0,0,0.01731531,72.91189,1377.4675)" />
    <g
       id="g28487"
       transform="matrix(0.01731531,0,0,0.01731531,72.91189,1377.4675)" />
    <g
       id="g28489"
       transform="matrix(0.01731531,0,0,0.01731531,72.91189,1377.4675)" />
    <g
       id="g28491"
       transform="matrix(0.01731531,0,0,0.01731531,72.91189,1377.4675)" />
    <g
       id="g28493"
       transform="matrix(0.01731531,0,0,0.01731531,72.91189,1377.4675)" />
    <g
       id="g28495"
       transform="matrix(0.01731531,0,0,0.01731531,72.91189,1377.4675)" />
    <g
       id="g28497"
       transform="matrix(0.01731531,0,0,0.01731531,72.91189,1377.4675)" />
    <g
       id="g28499"
       transform="matrix(0.01731531,0,0,0.01731531,72.91189,1377.4675)" />
    <g
       id="g28501"
       transform="matrix(0.01731531,0,0,0.01731531,72.91189,1377.4675)" />
    <g
       id="g28503"
       transform="matrix(0.01731531,0,0,0.01731531,72.91189,1377.4675)" />
    <g
       id="g28505"
       transform="matrix(0.01731531,0,0,0.01731531,72.91189,1377.4675)" />
    <g
       id="g28507"
       transform="matrix(0.01731531,0,0,0.01731531,72.91189,1377.4675)" />
    <g
       id="g28509"
       transform="matrix(0.01731531,0,0,0.01731531,72.91189,1377.4675)" />
    <g
       id="g28511"
       transform="matrix(0.01649577,0,0,0.01649577,20.57922,1368.6009)" />
    <g
       id="g28513"
       transform="matrix(0.01649577,0,0,0.01649577,20.57922,1368.6009)" />
    <g
       id="g28515"
       transform="matrix(0.01649577,0,0,0.01649577,20.57922,1368.6009)" />
    <g
       id="g28517"
       transform="matrix(0.01649577,0,0,0.01649577,20.57922,1368.6009)" />
    <g
       id="g28519"
       transform="matrix(0.01649577,0,0,0.01649577,20.57922,1368.6009)" />
    <g
       id="g28521"
       transform="matrix(0.01649577,0,0,0.01649577,20.57922,1368.6009)" />
    <g
       id="g28523"
       transform="matrix(0.01649577,0,0,0.01649577,20.57922,1368.6009)" />
    <g
       id="g28525"
       transform="matrix(0.01649577,0,0,0.01649577,20.57922,1368.6009)" />
    <g
       id="g28527"
       transform="matrix(0.01649577,0,0,0.01649577,20.57922,1368.6009)" />
    <g
       id="g28529"
       transform="matrix(0.01649577,0,0,0.01649577,20.57922,1368.6009)" />
    <g
       id="g28531"
       transform="matrix(0.01649577,0,0,0.01649577,20.57922,1368.6009)" />
    <g
       id="g28533"
       transform="matrix(0.01649577,0,0,0.01649577,20.57922,1368.6009)" />
    <g
       id="g28535"
       transform="matrix(0.01649577,0,0,0.01649577,20.57922,1368.6009)" />
    <g
       id="g28537"
       transform="matrix(0.01649577,0,0,0.01649577,20.57922,1368.6009)" />
    <g
       id="g28539"
       transform="matrix(0.01649577,0,0,0.01649577,20.57922,1368.6009)" />
    <g
       style="fill:#ffffff;fill-opacity:1"
       id="g28541"
       transform="matrix(0.2278278,0,0,0.2278278,-477.36413,1543.9849)" />
    <g
       style="fill:#ffffff;fill-opacity:1"
       id="g28543"
       transform="matrix(0.2278278,0,0,0.2278278,-477.36413,1543.9849)" />
    <g
       style="fill:#ffffff;fill-opacity:1"
       id="g28545"
       transform="matrix(0.2278278,0,0,0.2278278,-477.36413,1543.9849)" />
    <g
       style="fill:#ffffff;fill-opacity:1"
       id="g28547"
       transform="matrix(0.2278278,0,0,0.2278278,-477.36413,1543.9849)" />
    <g
       style="fill:#ffffff;fill-opacity:1"
       id="g28549"
       transform="matrix(0.2278278,0,0,0.2278278,-477.36413,1543.9849)" />
    <g
       style="fill:#ffffff;fill-opacity:1"
       id="g28551"
       transform="matrix(0.2278278,0,0,0.2278278,-477.36413,1543.9849)" />
    <g
       style="fill:#ffffff;fill-opacity:1"
       id="g28553"
       transform="matrix(0.2278278,0,0,0.2278278,-477.36413,1543.9849)" />
    <g
       style="fill:#ffffff;fill-opacity:1"
       id="g28555"
       transform="matrix(0.2278278,0,0,0.2278278,-477.36413,1543.9849)" />
    <g
       style="fill:#ffffff;fill-opacity:1"
       id="g28557"
       transform="matrix(0.2278278,0,0,0.2278278,-477.36413,1543.9849)" />
    <g
       style="fill:#ffffff;fill-opacity:1"
       id="g28559"
       transform="matrix(0.2278278,0,0,0.2278278,-477.36413,1543.9849)" />
    <g
       style="fill:#ffffff;fill-opacity:1"
       id="g28561"
       transform="matrix(0.2278278,0,0,0.2278278,-477.36413,1543.9849)" />
    <g
       style="fill:#ffffff;fill-opacity:1"
       id="g28563"
       transform="matrix(0.2278278,0,0,0.2278278,-477.36413,1543.9849)" />
    <g
       style="fill:#ffffff;fill-opacity:1"
       id="g28565"
       transform="matrix(0.2278278,0,0,0.2278278,-477.36413,1543.9849)" />
    <g
       style="fill:#ffffff;fill-opacity:1"
       id="g28567"
       transform="matrix(0.2278278,0,0,0.2278278,-477.36413,1543.9849)" />
    <g
       style="fill:#ffffff;fill-opacity:1"
       id="g28569"
       transform="matrix(0.2278278,0,0,0.2278278,-477.36413,1543.9849)" />
    <g
       style="fill:#000000"
       id="g28571"
       transform="matrix(0.01576905,0,0,0.01576905,-501.09673,1511.2616)" />
    <g
       style="fill:#000000"
       id="g28573"
       transform="matrix(0.01576905,0,0,0.01576905,-501.09673,1511.2616)" />
    <g
       style="fill:#000000"
       id="g28575"
       transform="matrix(0.01576905,0,0,0.01576905,-501.09673,1511.2616)" />
    <g
       style="fill:#000000"
       id="g28577"
       transform="matrix(0.01576905,0,0,0.01576905,-501.09673,1511.2616)" />
    <g
       style="fill:#000000"
       id="g28579"
       transform="matrix(0.01576905,0,0,0.01576905,-501.09673,1511.2616)" />
    <g
       style="fill:#000000"
       id="g28581"
       transform="matrix(0.01576905,0,0,0.01576905,-501.09673,1511.2616)" />
    <g
       style="fill:#000000"
       id="g28583"
       transform="matrix(0.01576905,0,0,0.01576905,-501.09673,1511.2616)" />
    <g
       style="fill:#000000"
       id="g28585"
       transform="matrix(0.01576905,0,0,0.01576905,-501.09673,1511.2616)" />
    <g
       style="fill:#000000"
       id="g28587"
       transform="matrix(0.01576905,0,0,0.01576905,-501.09673,1511.2616)" />
    <g
       style="fill:#000000"
       id="g28589"
       transform="matrix(0.01576905,0,0,0.01576905,-501.09673,1511.2616)" />
    <g
       style="fill:#000000"
       id="g28591"
       transform="matrix(0.01576905,0,0,0.01576905,-501.09673,1511.2616)" />
    <g
       style="fill:#000000"
       id="g28593"
       transform="matrix(0.01576905,0,0,0.01576905,-501.09673,1511.2616)" />
    <g
       style="fill:#000000"
       id="g28595"
       transform="matrix(0.01576905,0,0,0.01576905,-501.09673,1511.2616)" />
    <g
       style="fill:#000000"
       id="g28597"
       transform="matrix(0.01576905,0,0,0.01576905,-501.09673,1511.2616)" />
    <g
       style="fill:#000000"
       id="g28599"
       transform="matrix(0.01576905,0,0,0.01576905,-501.09673,1511.2616)" />
    <g
       style="fill:#4d4d4d;fill-opacity:1"
       id="g28601"
       transform="matrix(0.01326198,0,0,0.01326198,-44.3381,1369.1259)" />
    <g
       style="fill:#4d4d4d;fill-opacity:1"
       id="g28603"
       transform="matrix(0.01326198,0,0,0.01326198,-44.3381,1369.1259)" />
    <g
       style="fill:#4d4d4d;fill-opacity:1"
       id="g28605"
       transform="matrix(0.01326198,0,0,0.01326198,-44.3381,1369.1259)" />
    <g
       style="fill:#4d4d4d;fill-opacity:1"
       id="g28607"
       transform="matrix(0.01326198,0,0,0.01326198,-44.3381,1369.1259)" />
    <g
       style="fill:#4d4d4d;fill-opacity:1"
       id="g28609"
       transform="matrix(0.01326198,0,0,0.01326198,-44.3381,1369.1259)" />
    <g
       style="fill:#4d4d4d;fill-opacity:1"
       id="g28611"
       transform="matrix(0.01326198,0,0,0.01326198,-44.3381,1369.1259)" />
    <g
       style="fill:#4d4d4d;fill-opacity:1"
       id="g28613"
       transform="matrix(0.01326198,0,0,0.01326198,-44.3381,1369.1259)" />
    <g
       style="fill:#4d4d4d;fill-opacity:1"
       id="g28615"
       transform="matrix(0.01326198,0,0,0.01326198,-44.3381,1369.1259)" />
    <g
       style="fill:#4d4d4d;fill-opacity:1"
       id="g28617"
       transform="matrix(0.01326198,0,0,0.01326198,-44.3381,1369.1259)" />
    <g
       style="fill:#4d4d4d;fill-opacity:1"
       id="g28619"
       transform="matrix(0.01326198,0,0,0.01326198,-44.3381,1369.1259)" />
    <g
       style="fill:#4d4d4d;fill-opacity:1"
       id="g28621"
       transform="matrix(0.01326198,0,0,0.01326198,-44.3381,1369.1259)" />
    <g
       style="fill:#4d4d4d;fill-opacity:1"
       id="g28623"
       transform="matrix(0.01326198,0,0,0.01326198,-44.3381,1369.1259)" />
    <g
       style="fill:#4d4d4d;fill-opacity:1"
       id="g28625"
       transform="matrix(0.01326198,0,0,0.01326198,-44.3381,1369.1259)" />
    <g
       style="fill:#4d4d4d;fill-opacity:1"
       id="g28627"
       transform="matrix(0.01326198,0,0,0.01326198,-44.3381,1369.1259)" />
    <g
       style="fill:#4d4d4d;fill-opacity:1"
       id="g28629"
       transform="matrix(0.01326198,0,0,0.01326198,-44.3381,1369.1259)" />
    <g
       id="g28631"
       transform="matrix(0.01731531,0,0,0.01731531,212.21822,1377.4675)" />
    <g
       id="g28633"
       transform="matrix(0.01731531,0,0,0.01731531,212.21822,1377.4675)" />
    <g
       id="g28635"
       transform="matrix(0.01731531,0,0,0.01731531,212.21822,1377.4675)" />
    <g
       id="g28637"
       transform="matrix(0.01731531,0,0,0.01731531,212.21822,1377.4675)" />
    <g
       id="g28639"
       transform="matrix(0.01731531,0,0,0.01731531,212.21822,1377.4675)" />
    <g
       id="g28641"
       transform="matrix(0.01731531,0,0,0.01731531,212.21822,1377.4675)" />
    <g
       id="g28643"
       transform="matrix(0.01731531,0,0,0.01731531,212.21822,1377.4675)" />
    <g
       id="g28645"
       transform="matrix(0.01731531,0,0,0.01731531,212.21822,1377.4675)" />
    <g
       id="g28647"
       transform="matrix(0.01731531,0,0,0.01731531,212.21822,1377.4675)" />
    <g
       id="g28649"
       transform="matrix(0.01731531,0,0,0.01731531,212.21822,1377.4675)" />
    <g
       id="g28651"
       transform="matrix(0.01731531,0,0,0.01731531,212.21822,1377.4675)" />
    <g
       id="g28653"
       transform="matrix(0.01731531,0,0,0.01731531,212.21822,1377.4675)" />
    <g
       id="g28655"
       transform="matrix(0.01731531,0,0,0.01731531,212.21822,1377.4675)" />
    <g
       id="g28657"
       transform="matrix(0.01731531,0,0,0.01731531,212.21822,1377.4675)" />
    <g
       id="g28659"
       transform="matrix(0.01731531,0,0,0.01731531,212.21822,1377.4675)" />
    <g
       id="g28661"
       transform="matrix(0.01649577,0,0,0.01649577,159.88555,1368.6009)" />
    <g
       id="g28663"
       transform="matrix(0.01649577,0,0,0.01649577,159.88555,1368.6009)" />
    <g
       id="g28665"
       transform="matrix(0.01649577,0,0,0.01649577,159.88555,1368.6009)" />
    <g
       id="g28667"
       transform="matrix(0.01649577,0,0,0.01649577,159.88555,1368.6009)" />
    <g
       id="g28669"
       transform="matrix(0.01649577,0,0,0.01649577,159.88555,1368.6009)" />
    <g
       id="g28671"
       transform="matrix(0.01649577,0,0,0.01649577,159.88555,1368.6009)" />
    <g
       id="g28673"
       transform="matrix(0.01649577,0,0,0.01649577,159.88555,1368.6009)" />
    <g
       id="g28675"
       transform="matrix(0.01649577,0,0,0.01649577,159.88555,1368.6009)" />
    <g
       id="g28677"
       transform="matrix(0.01649577,0,0,0.01649577,159.88555,1368.6009)" />
    <g
       id="g28679"
       transform="matrix(0.01649577,0,0,0.01649577,159.88555,1368.6009)" />
    <g
       id="g28681"
       transform="matrix(0.01649577,0,0,0.01649577,159.88555,1368.6009)" />
    <g
       id="g28683"
       transform="matrix(0.01649577,0,0,0.01649577,159.88555,1368.6009)" />
    <g
       id="g28685"
       transform="matrix(0.01649577,0,0,0.01649577,159.88555,1368.6009)" />
    <g
       id="g28687"
       transform="matrix(0.01649577,0,0,0.01649577,159.88555,1368.6009)" />
    <g
       id="g28689"
       transform="matrix(0.01649577,0,0,0.01649577,159.88555,1368.6009)" />
    <g
       id="g28691"
       style="fill:#36364a;fill-opacity:1"
       transform="matrix(0.05599412,0,0,0.05599412,152.37414,1461.9863)" />
    <g
       id="g28693"
       style="fill:#36364a;fill-opacity:1"
       transform="matrix(0.05599412,0,0,0.05599412,152.37414,1461.9863)" />
    <g
       id="g28695"
       style="fill:#36364a;fill-opacity:1"
       transform="matrix(0.05599412,0,0,0.05599412,152.37414,1461.9863)" />
    <g
       id="g28697"
       style="fill:#36364a;fill-opacity:1"
       transform="matrix(0.05599412,0,0,0.05599412,152.37414,1461.9863)" />
    <g
       id="g28699"
       style="fill:#36364a;fill-opacity:1"
       transform="matrix(0.05599412,0,0,0.05599412,152.37414,1461.9863)" />
    <g
       id="g28701"
       style="fill:#36364a;fill-opacity:1"
       transform="matrix(0.05599412,0,0,0.05599412,152.37414,1461.9863)" />
    <g
       id="g28703"
       style="fill:#36364a;fill-opacity:1"
       transform="matrix(0.05599412,0,0,0.05599412,152.37414,1461.9863)" />
    <g
       id="g28705"
       style="fill:#36364a;fill-opacity:1"
       transform="matrix(0.05599412,0,0,0.05599412,152.37414,1461.9863)" />
    <g
       id="g28707"
       style="fill:#36364a;fill-opacity:1"
       transform="matrix(0.05599412,0,0,0.05599412,152.37414,1461.9863)" />
    <g
       id="g28709"
       style="fill:#36364a;fill-opacity:1"
       transform="matrix(0.05599412,0,0,0.05599412,152.37414,1461.9863)" />
    <g
       id="g28711"
       style="fill:#36364a;fill-opacity:1"
       transform="matrix(0.05599412,0,0,0.05599412,152.37414,1461.9863)" />
    <g
       id="g28713"
       style="fill:#36364a;fill-opacity:1"
       transform="matrix(0.05599412,0,0,0.05599412,152.37414,1461.9863)" />
    <g
       id="g28715"
       style="fill:#36364a;fill-opacity:1"
       transform="matrix(0.05599412,0,0,0.05599412,152.37414,1461.9863)" />
    <g
       id="g28717"
       style="fill:#36364a;fill-opacity:1"
       transform="matrix(0.05599412,0,0,0.05599412,152.37414,1461.9863)" />
    <g
       id="g28719"
       style="fill:#36364a;fill-opacity:1"
       transform="matrix(0.05599412,0,0,0.05599412,152.37414,1461.9863)" />
    <g
       style="fill:#999999"
       id="g28721"
       transform="matrix(0.00598659,-0.01521456,0.01521456,0.00598659,151.311,1509.9169)" />
    <g
       style="fill:#999999"
       id="g28723"
       transform="matrix(0.00598659,-0.01521456,0.01521456,0.00598659,151.311,1509.9169)" />
    <g
       style="fill:#999999"
       id="g28725"
       transform="matrix(0.00598659,-0.01521456,0.01521456,0.00598659,151.311,1509.9169)" />
    <g
       style="fill:#999999"
       id="g28727"
       transform="matrix(0.00598659,-0.01521456,0.01521456,0.00598659,151.311,1509.9169)" />
    <g
       style="fill:#999999"
       id="g28729"
       transform="matrix(0.00598659,-0.01521456,0.01521456,0.00598659,151.311,1509.9169)" />
    <g
       style="fill:#999999"
       id="g28731"
       transform="matrix(0.00598659,-0.01521456,0.01521456,0.00598659,151.311,1509.9169)" />
    <g
       style="fill:#999999"
       id="g28733"
       transform="matrix(0.00598659,-0.01521456,0.01521456,0.00598659,151.311,1509.9169)" />
    <g
       style="fill:#999999"
       id="g28735"
       transform="matrix(0.00598659,-0.01521456,0.01521456,0.00598659,151.311,1509.9169)" />
    <g
       style="fill:#999999"
       id="g28737"
       transform="matrix(0.00598659,-0.01521456,0.01521456,0.00598659,151.311,1509.9169)" />
    <g
       style="fill:#999999"
       id="g28739"
       transform="matrix(0.00598659,-0.01521456,0.01521456,0.00598659,151.311,1509.9169)" />
    <g
       style="fill:#999999"
       id="g28741"
       transform="matrix(0.00598659,-0.01521456,0.01521456,0.00598659,151.311,1509.9169)" />
    <g
       style="fill:#999999"
       id="g28743"
       transform="matrix(0.00598659,-0.01521456,0.01521456,0.00598659,151.311,1509.9169)" />
    <g
       style="fill:#999999"
       id="g28745"
       transform="matrix(0.00598659,-0.01521456,0.01521456,0.00598659,151.311,1509.9169)" />
    <g
       style="fill:#999999"
       id="g28747"
       transform="matrix(0.00598659,-0.01521456,0.01521456,0.00598659,151.311,1509.9169)" />
    <g
       style="fill:#999999"
       id="g28749"
       transform="matrix(0.00598659,-0.01521456,0.01521456,0.00598659,151.311,1509.9169)" />
    <g
       style="fill:#999999"
       id="g28751"
       transform="matrix(-0.00645173,-0.01502322,0.01502322,-0.00645173,208.71234,1529.5631)" />
    <g
       style="fill:#999999"
       id="g28753"
       transform="matrix(-0.00645173,-0.01502322,0.01502322,-0.00645173,208.71234,1529.5631)" />
    <g
       style="fill:#999999"
       id="g28755"
       transform="matrix(-0.00645173,-0.01502322,0.01502322,-0.00645173,208.71234,1529.5631)" />
    <g
       style="fill:#999999"
       id="g28757"
       transform="matrix(-0.00645173,-0.01502322,0.01502322,-0.00645173,208.71234,1529.5631)" />
    <g
       style="fill:#999999"
       id="g28759"
       transform="matrix(-0.00645173,-0.01502322,0.01502322,-0.00645173,208.71234,1529.5631)" />
    <g
       style="fill:#999999"
       id="g28761"
       transform="matrix(-0.00645173,-0.01502322,0.01502322,-0.00645173,208.71234,1529.5631)" />
    <g
       style="fill:#999999"
       id="g28763"
       transform="matrix(-0.00645173,-0.01502322,0.01502322,-0.00645173,208.71234,1529.5631)" />
    <g
       style="fill:#999999"
       id="g28765"
       transform="matrix(-0.00645173,-0.01502322,0.01502322,-0.00645173,208.71234,1529.5631)" />
    <g
       style="fill:#999999"
       id="g28767"
       transform="matrix(-0.00645173,-0.01502322,0.01502322,-0.00645173,208.71234,1529.5631)" />
    <g
       style="fill:#999999"
       id="g28769"
       transform="matrix(-0.00645173,-0.01502322,0.01502322,-0.00645173,208.71234,1529.5631)" />
    <g
       style="fill:#999999"
       id="g28771"
       transform="matrix(-0.00645173,-0.01502322,0.01502322,-0.00645173,208.71234,1529.5631)" />
    <g
       style="fill:#999999"
       id="g28773"
       transform="matrix(-0.00645173,-0.01502322,0.01502322,-0.00645173,208.71234,1529.5631)" />
    <g
       style="fill:#999999"
       id="g28775"
       transform="matrix(-0.00645173,-0.01502322,0.01502322,-0.00645173,208.71234,1529.5631)" />
    <g
       style="fill:#999999"
       id="g28777"
       transform="matrix(-0.00645173,-0.01502322,0.01502322,-0.00645173,208.71234,1529.5631)" />
    <g
       style="fill:#999999"
       id="g28779"
       transform="matrix(-0.00645173,-0.01502322,0.01502322,-0.00645173,208.71234,1529.5631)" />
    <g
       style="opacity:0.5575221;fill:#008000"
       id="g28781"
       transform="matrix(0.00563661,-0.00860749,0.00860749,0.00563661,184.05851,1403.6061)" />
    <g
       style="opacity:0.5575221;fill:#008000"
       id="g28783"
       transform="matrix(0.00563661,-0.00860749,0.00860749,0.00563661,184.05851,1403.6061)" />
    <g
       style="opacity:0.5575221;fill:#008000"
       id="g28785"
       transform="matrix(0.00563661,-0.00860749,0.00860749,0.00563661,184.05851,1403.6061)" />
    <g
       style="opacity:0.5575221;fill:#008000"
       id="g28787"
       transform="matrix(0.00563661,-0.00860749,0.00860749,0.00563661,184.05851,1403.6061)" />
    <g
       style="opacity:0.5575221;fill:#008000"
       id="g28789"
       transform="matrix(0.00563661,-0.00860749,0.00860749,0.00563661,184.05851,1403.6061)" />
    <g
       style="opacity:0.5575221;fill:#008000"
       id="g28791"
       transform="matrix(0.00563661,-0.00860749,0.00860749,0.00563661,184.05851,1403.6061)" />
    <g
       style="opacity:0.5575221;fill:#008000"
       id="g28793"
       transform="matrix(0.00563661,-0.00860749,0.00860749,0.00563661,184.05851,1403.6061)" />
    <g
       style="opacity:0.5575221;fill:#008000"
       id="g28795"
       transform="matrix(0.00563661,-0.00860749,0.00860749,0.00563661,184.05851,1403.6061)" />
    <g
       style="opacity:0.5575221;fill:#008000"
       id="g28797"
       transform="matrix(0.00563661,-0.00860749,0.00860749,0.00563661,184.05851,1403.6061)" />
    <g
       style="opacity:0.5575221;fill:#008000"
       id="g28799"
       transform="matrix(0.00563661,-0.00860749,0.00860749,0.00563661,184.05851,1403.6061)" />
    <g
       style="opacity:0.5575221;fill:#008000"
       id="g28801"
       transform="matrix(0.00563661,-0.00860749,0.00860749,0.00563661,184.05851,1403.6061)" />
    <g
       style="opacity:0.5575221;fill:#008000"
       id="g28803"
       transform="matrix(0.00563661,-0.00860749,0.00860749,0.00563661,184.05851,1403.6061)" />
    <g
       style="opacity:0.5575221;fill:#008000"
       id="g28805"
       transform="matrix(0.00563661,-0.00860749,0.00860749,0.00563661,184.05851,1403.6061)" />
    <g
       style="opacity:0.5575221;fill:#008000"
       id="g28807"
       transform="matrix(0.00563661,-0.00860749,0.00860749,0.00563661,184.05851,1403.6061)" />
    <g
       style="opacity:0.5575221;fill:#008000"
       id="g28809"
       transform="matrix(0.00563661,-0.00860749,0.00860749,0.00563661,184.05851,1403.6061)" />
    <g
       style="fill:#999999"
       id="g28811"
       transform="matrix(0.01257994,-0.01044351,0.01044351,0.01257994,149.60679,1439.9229)" />
    <g
       style="fill:#999999"
       id="g28813"
       transform="matrix(0.01257994,-0.01044351,0.01044351,0.01257994,149.60679,1439.9229)" />
    <g
       style="fill:#999999"
       id="g28815"
       transform="matrix(0.01257994,-0.01044351,0.01044351,0.01257994,149.60679,1439.9229)" />
    <g
       style="fill:#999999"
       id="g28817"
       transform="matrix(0.01257994,-0.01044351,0.01044351,0.01257994,149.60679,1439.9229)" />
    <g
       style="fill:#999999"
       id="g28819"
       transform="matrix(0.01257994,-0.01044351,0.01044351,0.01257994,149.60679,1439.9229)" />
    <g
       style="fill:#999999"
       id="g28821"
       transform="matrix(0.01257994,-0.01044351,0.01044351,0.01257994,149.60679,1439.9229)" />
    <g
       style="fill:#999999"
       id="g28823"
       transform="matrix(0.01257994,-0.01044351,0.01044351,0.01257994,149.60679,1439.9229)" />
    <g
       style="fill:#999999"
       id="g28825"
       transform="matrix(0.01257994,-0.01044351,0.01044351,0.01257994,149.60679,1439.9229)" />
    <g
       style="fill:#999999"
       id="g28827"
       transform="matrix(0.01257994,-0.01044351,0.01044351,0.01257994,149.60679,1439.9229)" />
    <g
       style="fill:#999999"
       id="g28829"
       transform="matrix(0.01257994,-0.01044351,0.01044351,0.01257994,149.60679,1439.9229)" />
    <g
       style="fill:#999999"
       id="g28831"
       transform="matrix(0.01257994,-0.01044351,0.01044351,0.01257994,149.60679,1439.9229)" />
    <g
       style="fill:#999999"
       id="g28833"
       transform="matrix(0.01257994,-0.01044351,0.01044351,0.01257994,149.60679,1439.9229)" />
    <g
       style="fill:#999999"
       id="g28835"
       transform="matrix(0.01257994,-0.01044351,0.01044351,0.01257994,149.60679,1439.9229)" />
    <g
       style="fill:#999999"
       id="g28837"
       transform="matrix(0.01257994,-0.01044351,0.01044351,0.01257994,149.60679,1439.9229)" />
    <g
       style="fill:#999999"
       id="g28839"
       transform="matrix(0.01257994,-0.01044351,0.01044351,0.01257994,149.60679,1439.9229)" />
    <g
       id="g28841"
       style="fill:#36364a;fill-opacity:1"
       transform="matrix(0.0674744,0,0,0.0674744,347.13845,1420.8037)" />
    <g
       id="g28843"
       style="fill:#36364a;fill-opacity:1"
       transform="matrix(0.0674744,0,0,0.0674744,347.13845,1420.8037)" />
    <g
       id="g28845"
       style="fill:#36364a;fill-opacity:1"
       transform="matrix(0.0674744,0,0,0.0674744,347.13845,1420.8037)" />
    <g
       id="g28847"
       style="fill:#36364a;fill-opacity:1"
       transform="matrix(0.0674744,0,0,0.0674744,347.13845,1420.8037)" />
    <g
       id="g28849"
       style="fill:#36364a;fill-opacity:1"
       transform="matrix(0.0674744,0,0,0.0674744,347.13845,1420.8037)" />
    <g
       id="g28851"
       style="fill:#36364a;fill-opacity:1"
       transform="matrix(0.0674744,0,0,0.0674744,347.13845,1420.8037)" />
    <g
       id="g28853"
       style="fill:#36364a;fill-opacity:1"
       transform="matrix(0.0674744,0,0,0.0674744,347.13845,1420.8037)" />
    <g
       id="g28855"
       style="fill:#36364a;fill-opacity:1"
       transform="matrix(0.0674744,0,0,0.0674744,347.13845,1420.8037)" />
    <g
       id="g28857"
       style="fill:#36364a;fill-opacity:1"
       transform="matrix(0.0674744,0,0,0.0674744,347.13845,1420.8037)" />
    <g
       id="g28859"
       style="fill:#36364a;fill-opacity:1"
       transform="matrix(0.0674744,0,0,0.0674744,347.13845,1420.8037)" />
    <g
       id="g28861"
       style="fill:#36364a;fill-opacity:1"
       transform="matrix(0.0674744,0,0,0.0674744,347.13845,1420.8037)" />
    <g
       id="g28863"
       style="fill:#36364a;fill-opacity:1"
       transform="matrix(0.0674744,0,0,0.0674744,347.13845,1420.8037)" />
    <g
       id="g28865"
       style="fill:#36364a;fill-opacity:1"
       transform="matrix(0.0674744,0,0,0.0674744,347.13845,1420.8037)" />
    <g
       id="g28867"
       style="fill:#36364a;fill-opacity:1"
       transform="matrix(0.0674744,0,0,0.0674744,347.13845,1420.8037)" />
    <g
       id="g28869"
       style="fill:#36364a;fill-opacity:1"
       transform="matrix(0.0674744,0,0,0.0674744,347.13845,1420.8037)" />
    <g
       id="g28871"
       style="opacity:0.37168142"
       transform="matrix(0.09947101,0,0,0.09947101,36.30377,1224.2075)">
      <g
         id="g28873" />
    </g>
    <g
       style="fill:#607d83;fill-opacity:0.92491353"
       id="g28889"
       transform="matrix(0.11589343,0,0,0.11589343,158.00506,1728.1763)" />
    <g
       style="fill:#607d83;fill-opacity:0.92491353"
       id="g28891"
       transform="matrix(0.11589343,0,0,0.11589343,158.00506,1728.1763)" />
    <g
       style="fill:#607d83;fill-opacity:0.92491353"
       id="g28893"
       transform="matrix(0.11589343,0,0,0.11589343,158.00506,1728.1763)" />
    <g
       style="fill:#607d83;fill-opacity:0.92491353"
       id="g28895"
       transform="matrix(0.11589343,0,0,0.11589343,158.00506,1728.1763)" />
    <g
       style="fill:#607d83;fill-opacity:0.92491353"
       id="g28897"
       transform="matrix(0.11589343,0,0,0.11589343,158.00506,1728.1763)" />
    <g
       style="fill:#607d83;fill-opacity:0.92491353"
       id="g28899"
       transform="matrix(0.11589343,0,0,0.11589343,158.00506,1728.1763)" />
    <g
       style="fill:#607d83;fill-opacity:0.92491353"
       id="g28901"
       transform="matrix(0.11589343,0,0,0.11589343,158.00506,1728.1763)" />
    <g
       style="fill:#607d83;fill-opacity:0.92491353"
       id="g28903"
       transform="matrix(0.11589343,0,0,0.11589343,158.00506,1728.1763)" />
    <g
       style="fill:#607d83;fill-opacity:0.92491353"
       id="g28905"
       transform="matrix(0.11589343,0,0,0.11589343,158.00506,1728.1763)" />
    <g
       style="fill:#607d83;fill-opacity:0.92491353"
       id="g28907"
       transform="matrix(0.11589343,0,0,0.11589343,158.00506,1728.1763)" />
    <g
       style="fill:#607d83;fill-opacity:0.92491353"
       id="g28909"
       transform="matrix(0.11589343,0,0,0.11589343,158.00506,1728.1763)" />
    <g
       style="fill:#607d83;fill-opacity:0.92491353"
       id="g28911"
       transform="matrix(0.11589343,0,0,0.11589343,158.00506,1728.1763)" />
    <g
       style="fill:#607d83;fill-opacity:0.92491353"
       id="g28913"
       transform="matrix(0.11589343,0,0,0.11589343,158.00506,1728.1763)" />
    <g
       style="fill:#607d83;fill-opacity:0.92491353"
       id="g28915"
       transform="matrix(0.11589343,0,0,0.11589343,158.00506,1728.1763)" />
    <g
       style="fill:#607d83;fill-opacity:0.92491353"
       id="g28917"
       transform="matrix(0.11589343,0,0,0.11589343,158.00506,1728.1763)" />
    <flowRoot
       xml:space="preserve"
       id="flowRoot28919"
       style="font-style:normal;font-weight:normal;line-height:0.01%;font-family:sans-serif;letter-spacing:0px;word-spacing:0px;fill:#4d4d4d;fill-opacity:1;stroke:none"
       transform="translate(587.08107,479.41377)"><flowRegion
         id="flowRegion28921"
         style="font-family:sans-serif"><rect
           style="font-family:sans-serif;fill:#4d4d4d"
           id="rect28923"
           width="37.898209"
           height="39.227966"
           x="-857.3559"
           y="654.27014" /></flowRegion><flowPara
         id="flowPara28925"
         style="font-weight:bold;font-size:9.40283394px;line-height:1.25;font-family:sans-serif;-inkscape-font-specification:'Sans Bold';fill:#4d4d4d">Leaderboard</flowPara></flowRoot>    <g
       id="g131790"
       transform="matrix(0.05713909,-0.05713909,0.05713909,0.05713909,318.55469,492.95787)" />
    <g
       id="g131792"
       transform="matrix(0.05713909,-0.05713909,0.05713909,0.05713909,318.55469,492.95787)" />
    <g
       id="g131794"
       transform="matrix(0.05713909,-0.05713909,0.05713909,0.05713909,318.55469,492.95787)" />
    <g
       id="g131796"
       transform="matrix(0.05713909,-0.05713909,0.05713909,0.05713909,318.55469,492.95787)" />
    <g
       id="g131798"
       transform="matrix(0.05713909,-0.05713909,0.05713909,0.05713909,318.55469,492.95787)" />
    <g
       id="g131800"
       transform="matrix(0.05713909,-0.05713909,0.05713909,0.05713909,318.55469,492.95787)" />
    <g
       id="g131802"
       transform="matrix(0.05713909,-0.05713909,0.05713909,0.05713909,318.55469,492.95787)" />
    <g
       id="g131804"
       transform="matrix(0.05713909,-0.05713909,0.05713909,0.05713909,318.55469,492.95787)" />
    <g
       id="g131806"
       transform="matrix(0.05713909,-0.05713909,0.05713909,0.05713909,318.55469,492.95787)" />
    <g
       id="g131808"
       transform="matrix(0.05713909,-0.05713909,0.05713909,0.05713909,318.55469,492.95787)" />
    <g
       id="g131810"
       transform="matrix(0.05713909,-0.05713909,0.05713909,0.05713909,318.55469,492.95787)" />
    <g
       id="g131812"
       transform="matrix(0.05713909,-0.05713909,0.05713909,0.05713909,318.55469,492.95787)" />
    <g
       id="g131814"
       transform="matrix(0.05713909,-0.05713909,0.05713909,0.05713909,318.55469,492.95787)" />
    <g
       id="g131816"
       transform="matrix(0.05713909,-0.05713909,0.05713909,0.05713909,318.55469,492.95787)" />
    <g
       id="g131818"
       transform="matrix(0.05713909,-0.05713909,0.05713909,0.05713909,318.55469,492.95787)" />
    <g
       id="g17931"
       transform="matrix(0,-0.33072916,-0.33072916,0,504.968,1383.611)" />
    <g
       id="g3906"
       transform="translate(0,21.392204)">
      <rect
         ry="19.243404"
         rx="19.243404"
         y="1516.5618"
         x="21.48822"
         height="135.46666"
         width="135.46666"
         id="rect5108"
         style="opacity:1;fill:#ffffff;fill-opacity:1;stroke:none;stroke-width:8.28185368;stroke-miterlimit:4;stroke-dasharray:none;stroke-opacity:1" />
      <g
         id="g20035"
         transform="matrix(0.93157123,0.5378429,-0.5378429,0.93157123,848.01127,54.755062)">
        <g
           transform="matrix(0.8660254,-0.5,0.5,0.8660254,-770.47477,259.27541)"
           id="g20037">
          <path
             d="m 129.80017,1585.7805 c 0.19479,-0.052 0.38882,0.06 0.44591,0.2465 0.0464,0.1914 -0.0658,0.3857 -0.25458,0.441 l -54.593922,15.6381 c -0.06493,0.017 -0.138245,0.022 -0.203845,-10e-5 -0.0812,-0.022 -0.147956,-0.07 -0.189634,-0.1336 l -0.0129,-0.018 c -9.95e-4,-0.012 -0.0071,-0.015 -0.01101,-0.022 l -9.95e-4,-0.012 -0.0071,-0.015 c -0.01125,-0.022 -0.01822,-0.05 -0.02616,-0.077 l -10.930269,-53.4681 c -0.0429,-0.1975 0.08442,-0.3907 0.278266,-0.4278 0.191432,-0.046 0.378833,0.077 0.421639,0.2751 l 10.640811,52.054 12.04585,-41.5285 c 0.05404,-0.1884 0.252599,-0.3013 0.446865,-0.2439 0.188436,0.054 0.295235,0.2492 0.238217,0.4433 l -12.0963,41.7113 32.847087,-29.7621 c 0.14804,-0.1343 0.36954,-0.124 0.50376,0.024 0.12886,0.1444 0.11496,0.3722 -0.0331,0.5064 l -32.638555,29.5767 53.135155,-15.2172"
             style="fill:none;fill-opacity:1;fill-rule:nonzero;stroke:#dadada;stroke-width:1.05833328;stroke-miterlimit:4;stroke-dasharray:none;stroke-opacity:1"
             id="path20039"
             inkscape:connector-curvature="0" />
          <path
             d="m 87.340971,1557.1407 c 9.879209,-14.557 21.300089,-23.2118 27.077259,-19.8763 5.77116,3.332 3.98638,17.5501 -3.68076,33.3842 3.98231,-1.9522 8.83305,-1.9439 12.95695,0.4371 5.6066,3.2369 8.07869,9.8096 6.35539,15.7567 8.39333,-17.8938 1.8166,-39.5436 -15.61453,-49.6075 -17.431133,-10.0639 -39.469076,-4.9346 -50.774411,11.2778 4.294183,-4.4627 11.222645,-5.608 16.823441,-2.3744 4.12971,2.3842 6.556273,6.5775 6.856661,11.0024"
             style="fill:#36acf0;fill-opacity:1;fill-rule:evenodd;stroke:none"
             id="path20041"
             inkscape:connector-curvature="0" />
          <path
             d="m 110.73747,1570.6486 c 7.66714,-15.8341 9.45192,-30.0522 3.68076,-33.3842 -5.77717,-3.3355 -17.19805,5.3193 -27.077259,19.8763 0.05237,0.6971 0.05018,1.3939 -0.0126,2.0873 4.248683,-2.9437 9.986927,-3.3724 14.763879,-0.6144 4.77116,2.7546 7.27472,7.9417 6.8441,13.0897 0.5747,-0.3978 1.17725,-0.748 1.80111,-1.0547"
             style="fill:#36acf0;fill-opacity:1;fill-rule:evenodd;stroke:#ffffff;stroke-opacity:1"
             id="path20043"
             inkscape:connector-curvature="0" />
        </g>
        <g
           id="g20045"
           transform="matrix(0.58446808,0,0,0.58446808,76.129629,1604.5483)">
          <g
             id="g20047">
            <g
               id="g20049">
              <circle
                 id="circle20051"
                 r="27.337999"
                 cy="36.125"
                 cx="36.125999"
                 style="fill:#ffd01f" />
            </g>
            <g
               id="g20053">
              <circle
                 id="circle20055"
                 r="8.7869997"
                 cy="36.125"
                 cx="8.7869997"
                 style="fill:#ffd01f" />
            </g>
            <g
               id="g20057">
              <circle
                 id="circle20059"
                 r="8.7869997"
                 cy="36.125"
                 cx="63.464001"
                 style="fill:#ffd01f" />
            </g>
          </g>
          <g
             id="g20061" />
          <g
             id="g20063" />
          <g
             id="g20065" />
          <g
             id="g20067" />
          <g
             id="g20069" />
          <g
             id="g20071" />
          <g
             id="g20073" />
          <g
             id="g20075" />
          <g
             id="g20077" />
          <g
             id="g20079" />
          <g
             id="g20081" />
          <g
             id="g20083" />
          <g
             id="g20085" />
          <g
             id="g20087" />
          <g
             id="g20089" />
        </g>
      </g>
    </g>
  </g>
  <style
     type="text/css"
     id="style28029">
	.st0{display:none;}
	.st1{display:inline;}
</style>
</svg>
