<?xml version="1.0" encoding="UTF-8" standalone="no"?>
<!-- Created with Inkscape (http://www.inkscape.org/) -->

<svg
   xmlns:dc="http://purl.org/dc/elements/1.1/"
   xmlns:cc="http://creativecommons.org/ns#"
   xmlns:rdf="http://www.w3.org/1999/02/22-rdf-syntax-ns#"
   xmlns:svg="http://www.w3.org/2000/svg"
   xmlns="http://www.w3.org/2000/svg"
   xmlns:sodipodi="http://sodipodi.sourceforge.net/DTD/sodipodi-0.dtd"
   xmlns:inkscape="http://www.inkscape.org/namespaces/inkscape"
   width="353.88171mm"
   height="99.975677mm"
   viewBox="0 0 1253.9116 354.24452"
   id="svg2"
   version="1.1"
   inkscape:version="0.91 r13725"
   sodipodi:docname="new-logo.svg">
  <defs
     id="defs4" />
  <sodipodi:namedview
     id="base"
     pagecolor="#ffffff"
     bordercolor="#666666"
     borderopacity="1.0"
     inkscape:pageopacity="0.0"
     inkscape:pageshadow="2"
     inkscape:zoom="0.24748737"
     inkscape:cx="741.51621"
     inkscape:cy="138.55734"
     inkscape:document-units="px"
     inkscape:current-layer="g5001"
     showgrid="false"
     inkscape:window-width="1816"
     inkscape:window-height="913"
     inkscape:window-x="0"
     inkscape:window-y="1"
     inkscape:window-maximized="0"
     fit-margin-top="0"
     fit-margin-left="0"
     fit-margin-right="0"
     fit-margin-bottom="0" />
  <metadata
     id="metadata7">
    <rdf:RDF>
      <cc:Work
         rdf:about="">
        <dc:format>image/svg+xml</dc:format>
        <dc:type
           rdf:resource="http://purl.org/dc/dcmitype/StillImage" />
        <dc:title></dc:title>
      </cc:Work>
    </rdf:RDF>
  </metadata>
  <g
     inkscape:label="Layer 1"
     inkscape:groupmode="layer"
     id="layer1"
     transform="translate(996.57739,-656.69972)">
    <path
       style="fill:#000000"
       d=""
       id="path4999"
       inkscape:connector-curvature="0" />
    <path
       style="fill:#000000"
       d=""
       id="path4997"
       inkscape:connector-curvature="0" />
    <g
       id="g5001">
      <path
         d="m -636.80209,712.85116 c -7.6942,-30.39203 -26.16024,-51.55105 -50.01223,-52.32046 -11.15655,-0.38472 -7.69417,12.3107 -7.69417,12.3107 4.6165,5.38592 5.00122,5.38592 8.84831,0.7694 8.46362,-10.77186 21.54373,13.84954 24.23669,50.39692 -61.93819,28.85319 -139.26477,78.86541 -119.64458,130.41645 5.00121,13.46482 13.46482,24.23669 30.77674,31.16145 44.62627,17.31192 100.79382,-30.39202 113.10452,-92.71493 3.8471,-18.08134 5.00122,-51.93575 2.69296,-67.70884 7.69419,-3.84709 15.00367,-6.54006 21.54373,-8.8483 8.0789,15.00366 7.30947,62.3229 7.30947,81.94306 0,14.61895 0.38472,30.39204 1.15413,45.3957 1.92354,24.6214 5.77064,56.55227 10.00245,73.09477 11.54127,44.62627 41.93332,34.23912 56.16755,22.69784 21.54371,-13.08012 65.40058,-77.71127 81.94308,-142.34243 6.92477,-27.31436 10.38715,-56.55227 6.92477,-83.86661 -7.6942,-64.63117 -45.78043,-60.39937 -56.93698,-51.55105 -11.15657,8.84831 3.84709,18.08133 3.84709,18.08133 0,0 1.53884,-4.2318 6.15534,-6.54006 38.85564,-19.23546 14.23426,105.41035 10.77186,121.95284 -18.85074,88.09843 -46.93453,127.33878 -58.0911,118.10575 -8.4636,-18.85075 -13.46482,-51.16633 -16.15778,-78.8654 -6.92477,-67.32413 -5.77066,-104.64092 -13.08012,-121.56813 -5.77064,-13.08011 -11.54128,-20.3896 -63.86173,0 z m -126.56937,136.18709 c -6.54005,-33.85443 50.78164,-80.78895 101.94797,-110.02687 0.38471,14.23425 -1.92354,29.23792 -6.15535,43.85686 -8.46361,30.00732 -39.62506,91.56081 -76.17244,87.71372 -11.15657,-1.15413 -18.08134,-10.00244 -19.62018,-21.54371 z"
         style="font-style:normal;font-variant:normal;font-weight:normal;font-stretch:normal;font-size:180px;line-height:125%;font-family:'Bellatine Pro TRIAL';-inkscape-font-specification:'Bellatine Pro TRIAL';letter-spacing:0px;word-spacing:0px;fill:#ff2054;fill-opacity:1;stroke:none;stroke-width:1px;stroke-linecap:butt;stroke-linejoin:miter;stroke-opacity:1"
         id="path4141"
         inkscape:connector-curvature="0" />
      <path
         d="m -375.39119,817.68357 c -36.53398,-55.76235 -88.45063,-9.6142 -97.1034,15.86342 -13.45988,23.55479 -21.15124,90.37347 37.97607,100.94909 27.40047,4.80709 46.62887,-9.1335 58.64661,-28.36189 3.36497,0.48071 7.21065,0.48071 11.05633,-0.48071 24.99692,-5.76852 31.24615,-37.97608 31.24615,-37.97608 l -9.1335,-7.21065 c 0,0 -5.76851,21.63195 -23.07406,25.95833 -0.96143,0.48072 -1.92284,0.48072 -2.40356,0.48072 6.72994,-23.55478 3.36497,-50.47454 -7.21064,-69.22223 z m -63.93444,44.70602 c 0.48073,-14.90201 5.76854,-57.20447 31.72687,-50.95525 12.97915,3.36497 23.07408,16.82484 21.15121,34.61112 -3.84568,1.44212 -11.0563,7.69136 -13.45985,15.86342 -3.84568,10.57562 -1.44213,22.11265 4.32639,31.24615 -5.28781,7.69136 -10.57564,12.01774 -22.11266,11.05632 -14.42129,-1.44213 -22.11265,-19.22839 -21.63196,-41.82176 z"
         style="font-style:normal;font-variant:normal;font-weight:normal;font-stretch:normal;font-size:180px;line-height:125%;font-family:'Bellatine Pro TRIAL';-inkscape-font-specification:'Bellatine Pro TRIAL';letter-spacing:0px;word-spacing:0px;fill:#ff2054;fill-opacity:1;stroke:none;stroke-width:1px;stroke-linecap:butt;stroke-linejoin:miter;stroke-opacity:1"
         id="path4143"
         inkscape:connector-curvature="0" />
      <path
         d="m -263.81394,793.16736 c 0,0 -1.92284,12.49846 -4.3264,28.36189 -4.32638,18.26697 -20.67051,87.96991 -33.16898,85.56636 -15.86342,-2.88426 -0.96141,-76.91359 -5.76852,-88.93133 -6.24922,-11.53704 -33.16898,-4.32639 -32.68826,-4.32639 0,0 -4.3264,57.20447 -5.76852,77.875 -1.92284,18.74769 2.40355,41.82176 30.28472,44.70603 16.82485,1.92283 28.84259,-16.34414 37.49537,-38.93751 -0.48071,17.30556 5.28781,36.53396 30.76543,38.93751 38.9375,3.84567 50.95525,-58.64661 53.83951,-74.02933 -5.28781,-2.88425 -7.69135,-3.84568 -7.69135,-3.84568 0,0 -14.90201,51.91667 -29.32331,49.51312 -15.86342,-2.88426 0.48071,-97.58411 -4.32638,-109.60186 -6.24924,-11.53704 -29.80403,-5.28781 -29.32331,-5.28781 z"
         style="font-style:normal;font-variant:normal;font-weight:normal;font-stretch:normal;font-size:180px;line-height:125%;font-family:'Bellatine Pro TRIAL';-inkscape-font-specification:'Bellatine Pro TRIAL';letter-spacing:0px;word-spacing:0px;fill:#ff2054;fill-opacity:1;stroke:none;stroke-width:1px;stroke-linecap:butt;stroke-linejoin:miter;stroke-opacity:1"
         id="path4145"
         inkscape:connector-curvature="0" />
      <path
         d="m -133.57911,804.7044 c 2.40355,2.88426 13.94058,6.24923 12.49845,-3.36496 -0.96141,-8.65279 -9.13348,-11.05633 -18.26697,-10.09491 -16.34413,1.92283 -41.34105,17.78627 -55.28163,49.51312 -22.11266,49.99383 -3.36498,87.96991 35.09182,93.73843 47.10957,8.17206 72.587187,-63.93442 70.183638,-69.70294 -3.364969,-6.72994 -7.691358,-4.32639 -7.691358,-4.32639 0,0 -22.59337,46.62886 -46.62886,46.62886 -29.3233,0 -14.4213,-89.41204 10.09491,-102.39121 z"
         style="font-style:normal;font-variant:normal;font-weight:normal;font-stretch:normal;font-size:180px;line-height:125%;font-family:'Bellatine Pro TRIAL';-inkscape-font-specification:'Bellatine Pro TRIAL';letter-spacing:0px;word-spacing:0px;fill:#ff2054;fill-opacity:1;stroke:none;stroke-width:1px;stroke-linecap:butt;stroke-linejoin:miter;stroke-opacity:1"
         id="path4147"
         inkscape:connector-curvature="0" />
      <path
         d="m -1.7447612,791.72524 c -25.4776528,0 -41.3410848,32.68826 -48.0709948,64.89583 -0.96142,4.80711 -1.922867,9.13349 -2.40355,13.45988 -0.961419,-18.26697 0.961394,-37.49537 1.922839,-51.91667 13.459875,-27.40047 48.5517058,-73.0679 39.898921,-107.67902 -2.403553,-12.97917 -26.919759,-29.80401 -45.667439,-19.7091 -6.729939,3.84568 -12.498458,14.90201 -17.305557,30.76543 -15.382717,49.99383 -20.189816,112.96683 -21.631972,159.11497 -0.480709,14.42131 0.480736,39.89893 15.382717,51.43597 10.575644,8.17206 35.572558,7.21064 42.302492,-5.76852 l -0.480701,0 0,-0.96143 c 0,0 -7.69136,-20.67052 4.326381,-68.74151 12.979178,-49.51311 32.2075658,-45.66744 24.9969188,-2.88425 -6.2492328,39.41821 -11.0563478,77.87499 27.8811732,82.20139 39.89892,4.32638 49.51309,-62.97301 50.95525,-69.22223 1.44213,-6.72994 -12.01775,-6.24923 -12.01775,-6.24923 0,0 -7.69135,46.62886 -22.11268,48.07099 -23.074074,2.88426 25.95836,-117.77393 -37.9760482,-116.8125 z m -49.5131508,-3.36497 c 0.961445,-21.15124 4.326387,-38.4568 10.094938,-60.56945 2.884255,-10.57563 5.287775,-17.78627 7.691349,-15.38272 5.287818,6.24923 -9.133486,54.80093 -17.786287,75.95217 z"
         style="font-style:normal;font-variant:normal;font-weight:normal;font-stretch:normal;font-size:180px;line-height:125%;font-family:'Bellatine Pro TRIAL';-inkscape-font-specification:'Bellatine Pro TRIAL';letter-spacing:0px;word-spacing:0px;fill:#ff2054;fill-opacity:1;stroke:none;stroke-width:1px;stroke-linecap:butt;stroke-linejoin:miter;stroke-opacity:1"
         id="path4149"
         inkscape:connector-curvature="0" />
      <path
         d="m 123.24015,847.00687 c 8.17208,-5.76852 29.80402,-27.88117 11.53704,-45.66743 -20.18981,-19.70911 -54.800933,-3.84568 -73.548623,36.05323 -22.11265,49.51313 -5.76852,92.29631 31.72686,97.10341 49.032413,7.69135 72.587203,-64.89584 66.818683,-69.70294 -6.24923,-3.84568 -8.65278,-4.32639 -8.65278,-4.32639 0,0 -15.86342,44.70602 -40.37963,46.62886 -18.747693,1.44213 -21.151243,-20.67053 -18.266973,-45.18673 11.537033,-3.36497 22.593363,-7.21065 30.765423,-14.90201 z m -6.24922,-37.49537 c 13.45987,2.40355 1.44213,29.32331 -21.151243,37.49537 5.768523,-23.07407 13.459883,-39.41821 21.151243,-37.49537 z"
         style="font-style:normal;font-variant:normal;font-weight:normal;font-stretch:normal;font-size:180px;line-height:125%;font-family:'Bellatine Pro TRIAL';-inkscape-font-specification:'Bellatine Pro TRIAL';letter-spacing:0px;word-spacing:0px;fill:#ff2054;fill-opacity:1;stroke:none;stroke-width:1px;stroke-linecap:butt;stroke-linejoin:miter;stroke-opacity:1"
         id="path4151"
         inkscape:connector-curvature="0" />
      <path
         d="m 219.94547,847.00687 c 8.17208,-5.76852 29.80402,-27.88117 11.53704,-45.66743 -20.18981,-19.70911 -54.80093,-3.84568 -73.54861,36.05323 -22.11266,49.51313 -5.76852,92.29631 31.72685,97.10341 49.03241,7.69135 72.5872,-64.89584 66.81868,-69.70294 -6.24923,-3.84568 -8.65278,-4.32639 -8.65278,-4.32639 0,0 -15.86342,44.70602 -40.37963,46.62886 -18.74769,1.44213 -21.15124,-20.67053 -18.26697,-45.18673 11.53704,-3.36497 22.59336,-7.21065 30.76542,-14.90201 z m -6.24922,-37.49537 c 13.45987,2.40355 1.44213,29.32331 -21.15124,37.49537 5.76852,-23.07407 13.45988,-39.41821 21.15124,-37.49537 z"
         style="font-style:normal;font-variant:normal;font-weight:normal;font-stretch:normal;font-size:180px;line-height:125%;font-family:'Bellatine Pro TRIAL';-inkscape-font-specification:'Bellatine Pro TRIAL';letter-spacing:0px;word-spacing:0px;fill:#ff2054;fill-opacity:1;stroke:none;stroke-width:1px;stroke-linecap:butt;stroke-linejoin:miter;stroke-opacity:1"
         id="path4153"
         inkscape:connector-curvature="0" />
      <path
         sodipodi:nodetypes="ccasccsasscccccsscc"
         inkscape:connector-curvature="0"
         d="m -904.38319,1008.4952 150.0195,-73.65546 c 4.93827,-2.14373 6.27348,-5.26076 8.36778,-8.69504 16.34351,-26.8005 30.4266,-89.12136 30.4266,-89.12136 2.34199,-6.85981 1.58327,-13.64816 -1.37925,-19.68213 l 0,0 c -2.96251,-6.03396 -8.20696,-10.90076 -14.7294,-13.12756 0,0 -57.9217,-26.96849 -89.12136,-30.42661 -3.998,-0.44312 -7.32053,-0.99251 -11.99686,1.30343 l -150.01894,73.65564 c -11.9925,5.88799 -17.37838,20.56021 -11.15322,32.66846 l 28.32902,57.69981 28.32901,57.69975 c 6.14704,12.51927 20.935,17.56787 32.92712,11.68107 z m 109.24053,-147.67985 c -5.88716,-11.99084 -1.94985,-23.52344 10.05823,-29.46113 12.00809,-5.93766 23.52347,-1.94985 29.46113,10.05823 5.93769,12.00809 1.94987,23.52345 -10.05822,29.46113 -12.00791,5.93717 -23.54051,1.99986 -29.46114,-10.05823 z"
         id="path4831"
         style="font-style:normal;font-weight:normal;font-size:medium;line-height:125%;font-family:sans-serif;letter-spacing:0px;word-spacing:0px;fill:#3a9aff;fill-opacity:1;stroke:none;stroke-width:1px;stroke-linecap:butt;stroke-linejoin:miter;stroke-opacity:1" />
      <path
         inkscape:connector-curvature="0"
         id="path4898"
         d="m -745.42578,775.11719 c -22.23186,18.70072 -37.99198,39.57941 -38.70899,61.1582 l 20.75977,1.5957 c 2.82289,-16.4995 17.31618,-35.02705 36.90039,-52.69336 l -18.95117,-10.06054 z"
         style="font-style:normal;font-variant:normal;font-weight:normal;font-stretch:normal;font-size:180px;line-height:125%;font-family:'Bellatine Pro TRIAL';-inkscape-font-specification:'Bellatine Pro TRIAL';letter-spacing:0px;word-spacing:0px;fill:#ff2054;fill-opacity:1;stroke:none;stroke-width:1px;stroke-linecap:butt;stroke-linejoin:miter;stroke-opacity:1" />
    </g>
  </g>
</svg>
